# 3ds Max Wavefront OBJ Exporter v0.97b - (c)2007 guruware
# File Created: 23.11.2019 15:32:18

mtllib tipot.mtl

#
# object Teapot001
#

v  0.1713 0.1407 0.0000
v  0.1216 0.1407 0.1216
v  0.1219 0.1528 0.1219
v  0.1717 0.1528 0.0000
v  0.1303 0.1407 0.1303
v  0.1835 0.1407 0.0000
v  0.0000 0.1407 0.1713
v  0.0000 0.1528 0.1717
v  0.0000 0.1407 0.1835
v  -0.1257 0.1407 0.1216
v  -0.1224 0.1528 0.1219
v  -0.1303 0.1407 0.1303
v  -0.1713 0.1407 0.0000
v  -0.1717 0.1528 0.0000
v  -0.1835 0.1407 0.0000
v  -0.1216 0.1407 -0.1216
v  -0.1219 0.1528 -0.1219
v  -0.1303 0.1407 -0.1303
v  0.0000 0.1407 -0.1713
v  0.0000 0.1528 -0.1717
v  0.0000 0.1407 -0.1835
v  0.1216 0.1407 -0.1216
v  0.1219 0.1528 -0.1219
v  0.1303 0.1407 -0.1303
v  0.1602 0.0455 0.1602
v  0.2256 0.0455 0.0000
v  0.1737 -0.0428 0.1737
v  0.2447 -0.0428 0.0000
v  0.0000 0.0455 0.2256
v  0.0000 -0.0428 0.2447
v  -0.1602 0.0455 0.1602
v  -0.1737 -0.0428 0.1737
v  -0.2256 0.0455 0.0000
v  -0.2447 -0.0428 0.0000
v  -0.1602 0.0455 -0.1602
v  -0.1737 -0.0428 -0.1737
v  0.0000 0.0455 -0.2256
v  0.0000 -0.0428 -0.2447
v  0.1602 0.0455 -0.1602
v  0.1737 -0.0428 -0.1737
v  0.1520 -0.1059 0.1520
v  0.2141 -0.1059 0.0000
v  0.1303 -0.1345 0.1303
v  0.1835 -0.1345 0.0000
v  0.0000 -0.1059 0.2141
v  0.0000 -0.1345 0.1835
v  -0.1520 -0.1059 0.1520
v  -0.1303 -0.1345 0.1303
v  -0.2141 -0.1059 0.0000
v  -0.1835 -0.1345 0.0000
v  -0.1520 -0.1059 -0.1520
v  -0.1303 -0.1345 -0.1303
v  0.0000 -0.1059 -0.2141
v  0.0000 -0.1345 -0.1835
v  0.1520 -0.1059 -0.1520
v  0.1303 -0.1345 -0.1303
v  0.1116 -0.1472 0.1116
v  0.1571 -0.1472 0.0000
v  0.0000 -0.1529 0.0000
v  0.0000 -0.1472 0.1571
v  -0.1116 -0.1472 0.1116
v  -0.1571 -0.1472 0.0000
v  -0.1116 -0.1472 -0.1116
v  0.0000 -0.1472 -0.1571
v  0.1116 -0.1472 -0.1116
v  -0.1958 0.0949 0.0000
v  -0.1896 0.1086 0.0275
v  -0.3082 0.1035 0.0275
v  -0.2952 0.0914 0.0000
v  -0.3487 0.0673 0.0275
v  -0.3303 0.0673 0.0000
v  -0.1835 0.1224 0.0000
v  -0.3212 0.1155 0.0000
v  -0.3670 0.0673 0.0000
v  -0.1896 0.1086 -0.0275
v  -0.3082 0.1035 -0.0275
v  -0.3487 0.0673 -0.0275
v  -0.3223 0.0005 0.0275
v  -0.3104 0.0123 0.0000
v  -0.2386 -0.0611 0.0275
v  -0.3342 -0.0112 0.0000
v  -0.2325 -0.0795 0.0000
v  -0.3223 0.0005 -0.0275
v  -0.2386 -0.0611 -0.0275
v  0.2080 0.0215 0.0000
v  0.2080 -0.0290 0.0606
v  0.3104 0.0455 0.0418
v  0.2921 0.0673 0.0000
v  0.3670 0.1407 0.0229
v  0.3303 0.1407 0.0000
v  0.2080 -0.0795 0.0000
v  0.3288 0.0237 0.0000
v  0.4037 0.1407 0.0000
v  0.2080 -0.0290 -0.0606
v  0.3104 0.0455 -0.0418
v  0.3670 0.1407 -0.0229
v  0.3825 0.1489 0.0184
v  0.3456 0.1476 0.0000
v  0.3670 0.1407 0.0138
v  0.3426 0.1407 0.0000
v  0.4194 0.1502 0.0000
v  0.3915 0.1407 0.0000
v  0.3825 0.1489 -0.0184
v  0.3670 0.1407 -0.0138
v  0.0000 0.2325 0.0000
v  0.0283 0.2119 0.0283
v  0.0398 0.2119 0.0000
v  0.0174 0.1774 0.0174
v  0.0245 0.1774 0.0000
v  0.0000 0.2119 0.0398
v  0.0000 0.1774 0.0245
v  -0.0283 0.2119 0.0283
v  -0.0174 0.1774 0.0174
v  -0.0398 0.2119 0.0000
v  -0.0245 0.1774 0.0000
v  -0.0283 0.2119 -0.0283
v  -0.0174 0.1774 -0.0174
v  0.0000 0.2119 -0.0398
v  0.0000 0.1774 -0.0245
v  0.0283 0.2119 -0.0283
v  0.0174 0.1774 -0.0174
v  0.0717 0.1591 0.0717
v  0.1009 0.1591 0.0000
v  0.1129 0.1407 0.1129
v  0.1590 0.1407 0.0000
v  0.0000 0.1591 0.1009
v  0.0000 0.1407 0.1590
v  -0.0717 0.1591 0.0717
v  -0.1129 0.1407 0.1129
v  -0.1009 0.1591 0.0000
v  -0.1590 0.1407 0.0000
v  -0.0717 0.1591 -0.0717
v  -0.1129 0.1407 -0.1129
v  0.0000 0.1591 -0.1009
v  0.0000 0.1407 -0.1590
v  0.0717 0.1591 -0.0717
v  0.1129 0.1407 -0.1129
# 137 vertices

vn -0.9995 0.0317 0.0000
vn -0.7067 0.0319 -0.7067
vn -0.0966 0.9906 -0.0966
vn -0.1416 0.9899 -0.0000
vn 0.5936 0.5435 0.5936
vn 0.8400 0.5425 -0.0000
vn -0.0010 0.0283 -0.9996
vn -0.0008 0.9899 -0.1421
vn 0.0000 0.5425 0.8400
vn 0.7268 -0.1773 -0.6636
vn 0.0816 0.9729 -0.2165
vn -0.5949 0.5381 0.5971
vn 0.9994 0.0317 0.0148
vn 0.1496 0.9886 0.0134
vn -0.8403 0.5422 -0.0004
vn 0.7067 0.0319 0.7067
vn 0.0966 0.9906 0.0966
vn -0.5936 0.5435 -0.5936
vn 0.0000 0.0317 0.9995
vn -0.0000 0.9899 0.1416
vn -0.0000 0.5425 -0.8400
vn -0.7067 0.0319 0.7067
vn -0.0966 0.9906 0.0966
vn 0.5936 0.5435 -0.5936
vn 0.6738 0.3034 0.6738
vn 0.9532 0.3025 0.0000
vn 0.7028 -0.1107 0.7028
vn 0.9939 -0.1105 0.0000
vn -0.0000 0.3025 0.9532
vn -0.0000 -0.1105 0.9939
vn -0.6738 0.3034 0.6738
vn -0.7028 -0.1107 0.7028
vn -0.9532 0.3025 -0.0000
vn -0.9939 -0.1105 -0.0000
vn -0.6738 0.3034 -0.6738
vn -0.7028 -0.1107 -0.7028
vn 0.0000 0.3025 -0.9532
vn 0.0000 -0.1105 -0.9939
vn 0.6738 0.3034 -0.6738
vn 0.7028 -0.1107 -0.7028
vn 0.5792 -0.5735 0.5792
vn 0.8198 -0.5726 -0.0000
vn 0.4157 -0.8089 0.4157
vn 0.5888 -0.8083 0.0000
vn 0.0000 -0.5726 0.8198
vn -0.0000 -0.8083 0.5888
vn -0.5792 -0.5735 0.5792
vn -0.4157 -0.8089 0.4157
vn -0.8198 -0.5726 0.0000
vn -0.5888 -0.8083 -0.0000
vn -0.5792 -0.5735 -0.5792
vn -0.4157 -0.8089 -0.4157
vn -0.0000 -0.5726 -0.8198
vn 0.0000 -0.8083 -0.5888
vn 0.5792 -0.5735 -0.5792
vn 0.4157 -0.8089 -0.4157
vn 0.2016 -0.9585 0.2016
vn 0.2850 -0.9585 0.0000
vn 0.0000 -1.0000 0.0000
vn -0.0000 -0.9585 0.2850
vn -0.2016 -0.9585 0.2016
vn -0.2850 -0.9585 -0.0000
vn -0.2016 -0.9585 -0.2016
vn 0.0000 -0.9585 -0.2850
vn 0.2016 -0.9585 -0.2016
vn 0.0384 -0.9993 -0.0031
vn -0.0182 0.2727 0.9619
vn -0.0190 0.2047 0.9786
vn 0.2817 -0.9594 -0.0145
vn -0.2938 0.1264 0.9475
vn 0.9324 -0.3590 -0.0422
vn -0.0473 0.9989 0.0015
vn -0.4420 0.8969 0.0127
vn -0.9859 0.1669 0.0106
vn -0.0177 0.2685 -0.9631
vn -0.0097 0.1786 -0.9839
vn -0.2735 0.1013 -0.9565
vn -0.1217 -0.0998 0.9875
vn 0.8176 0.5756 -0.0138
vn -0.3352 -0.5061 0.7946
vn 0.6216 0.7828 -0.0294
vn -0.7747 -0.6322 0.0079
vn -0.5711 -0.8208 0.0076
vn -0.1055 -0.0889 -0.9904
vn -0.3009 -0.4869 -0.8200
vn -0.4862 0.8738 -0.0074
vn 0.3271 -0.2382 0.9145
vn 0.1595 0.0246 0.9869
vn -0.6970 0.7167 0.0236
vn -0.0062 0.3812 0.9245
vn -0.7234 0.6881 0.0562
vn 0.6538 -0.7567 -0.0025
vn 0.7677 -0.6406 -0.0173
vn 0.6465 -0.7616 -0.0447
vn 0.3456 -0.2343 -0.9087
vn 0.1845 0.0081 -0.9828
vn 0.0506 0.3154 -0.9476
vn 0.2319 0.7793 0.5821
vn 0.0415 0.9967 0.0704
vn 0.3158 -0.0454 -0.9477
vn 0.9011 -0.4334 0.0135
vn 0.9533 0.2997 -0.0371
vn -0.3219 0.9468 -0.0032
vn 0.3655 0.7294 -0.5783
vn 0.3394 -0.1174 0.9333
vn 0.0000 1.0000 -0.0000
vn 0.6774 0.2871 0.6773
vn 0.9576 0.2882 0.0001
vn 0.5955 0.5396 0.5952
vn 0.8436 0.5370 0.0002
vn -0.0001 0.2882 0.9576
vn -0.0002 0.5370 0.8436
vn -0.6773 0.2871 0.6774
vn -0.5952 0.5396 0.5955
vn -0.9576 0.2882 -0.0001
vn -0.8436 0.5370 -0.0002
vn -0.6774 0.2871 -0.6773
vn -0.5955 0.5396 -0.5952
vn 0.0001 0.2882 -0.9576
vn 0.0002 0.5370 -0.8436
vn 0.6773 0.2871 -0.6774
vn 0.5952 0.5396 -0.5955
vn 0.1942 0.9616 0.1942
vn 0.2754 0.9613 -0.0000
vn 0.2121 0.9539 0.2121
vn 0.3011 0.9536 -0.0000
vn 0.0000 0.9613 0.2754
vn 0.0000 0.9536 0.3011
vn -0.1942 0.9616 0.1942
vn -0.2121 0.9539 0.2121
vn -0.2754 0.9613 0.0000
vn -0.3011 0.9536 0.0000
vn -0.1942 0.9616 -0.1942
vn -0.2121 0.9539 -0.2121
vn -0.0000 0.9613 -0.2754
vn -0.0000 0.9536 -0.3011
vn 0.1942 0.9616 -0.1942
vn 0.2121 0.9539 -0.2121
# 138 vertex normals

vt 2.0000 2.0000 0.0000
vt 1.5000 2.0000 0.0000
vt 1.5000 1.9500 0.0000
vt 2.0000 1.9500 0.0000
vt 1.5000 1.9000 0.0000
vt 2.0000 1.9000 0.0000
vt 1.0000 2.0000 0.0000
vt 1.0000 1.9500 0.0000
vt 1.0000 1.9000 0.0000
vt 0.5000 2.0000 0.0000
vt 0.5000 1.9500 0.0000
vt 0.5000 1.9000 0.0000
vt 0.0000 2.0000 0.0000
vt 0.0000 1.9500 0.0000
vt 0.0000 1.9000 0.0000
vt 1.5000 1.4500 0.0000
vt 2.0000 1.4500 0.0000
vt 1.5000 1.0000 0.0000
vt 2.0000 1.0000 0.0000
vt 1.0000 1.4500 0.0000
vt 1.0000 1.0000 0.0000
vt 0.5000 1.4500 0.0000
vt 0.5000 1.0000 0.0000
vt 0.0000 1.4500 0.0000
vt 0.0000 1.0000 0.0000
vt 1.5000 0.7000 0.0000
vt 2.0000 0.7000 0.0000
vt 1.5000 0.4000 0.0000
vt 2.0000 0.4000 0.0000
vt 1.0000 0.7000 0.0000
vt 1.0000 0.4000 0.0000
vt 0.5000 0.7000 0.0000
vt 0.5000 0.4000 0.0000
vt 0.0000 0.7000 0.0000
vt 0.0000 0.4000 0.0000
vt 1.5000 0.2000 0.0000
vt 2.0000 0.2000 0.0000
vt 1.5000 0.0000 0.0000
vt 2.0000 0.0000 0.0000
vt 1.0000 0.2000 0.0000
vt 1.0000 0.0000 0.0000
vt 0.5000 0.2000 0.0000
vt 0.5000 0.0000 0.0000
vt 0.0000 0.2000 0.0000
vt 0.0000 0.0000 0.0000
vt 0.7500 1.0000 0.0000
vt 0.7500 0.7500 0.0000
vt 1.0000 0.7500 0.0000
vt 0.7500 0.5000 0.0000
vt 1.0000 0.5000 0.0000
vt 0.5000 0.7500 0.0000
vt 0.5000 0.5000 0.0000
vt 0.2500 1.0000 0.0000
vt 0.2500 0.7500 0.0000
vt 0.2500 0.5000 0.0000
vt 0.0000 0.7500 0.0000
vt 0.0000 0.5000 0.0000
vt 0.7500 0.2500 0.0000
vt 1.0000 0.2500 0.0000
vt 0.7500 0.0000 0.0000
vt 0.5000 0.2500 0.0000
vt 0.2500 0.2500 0.0000
vt 0.2500 0.0000 0.0000
vt 0.0000 0.2500 0.0000
vt 0.7500 0.4500 0.0000
vt 0.5000 0.4500 0.0000
vt 0.7500 0.9000 0.0000
vt 0.5000 0.9000 0.0000
vt 1.0000 0.4500 0.0000
vt 1.0000 0.9000 0.0000
vt 0.2500 0.4500 0.0000
vt 0.0000 0.4500 0.0000
vt 0.2500 0.9000 0.0000
vt 0.0000 0.9000 0.0000
vt 0.7500 0.9500 0.0000
vt 0.5000 0.9500 0.0000
vt 1.0000 0.9500 0.0000
vt 0.2500 0.9500 0.0000
vt 0.0000 0.9500 0.0000
# 79 texture coords

o Teapot001
g Teapot001
usemtl wire_176026026
f 1/1/1 2/2/2 3/3/3 
f 3/3/3 4/4/4 1/1/1 
f 4/4/4 3/3/3 5/5/5 
f 5/5/5 6/6/6 4/4/4 
f 2/2/2 7/7/7 8/8/8 
f 8/8/8 3/3/3 2/2/2 
f 3/3/3 8/8/8 9/9/9 
f 9/9/9 5/5/5 3/3/3 
f 7/7/7 10/10/10 11/11/11 
f 11/11/11 8/8/8 7/7/7 
f 8/8/8 11/11/11 12/12/12 
f 12/12/12 9/9/9 8/8/8 
f 10/10/10 13/13/13 14/14/14 
f 14/14/14 11/11/11 10/10/10 
f 11/11/11 14/14/14 15/15/15 
f 15/15/15 12/12/12 11/11/11 
f 13/1/13 16/2/16 17/3/17 
f 17/3/17 14/4/14 13/1/13 
f 14/4/14 17/3/17 18/5/18 
f 18/5/18 15/6/15 14/4/14 
f 16/2/16 19/7/19 20/8/20 
f 20/8/20 17/3/17 16/2/16 
f 17/3/17 20/8/20 21/9/21 
f 21/9/21 18/5/18 17/3/17 
f 19/7/19 22/10/22 23/11/23 
f 23/11/23 20/8/20 19/7/19 
f 20/8/20 23/11/23 24/12/24 
f 24/12/24 21/9/21 20/8/20 
f 22/10/22 1/13/1 4/14/4 
f 4/14/4 23/11/23 22/10/22 
f 23/11/23 4/14/4 6/15/6 
f 6/15/6 24/12/24 23/11/23 
f 6/6/6 5/5/5 25/16/25 
f 25/16/25 26/17/26 6/6/6 
f 26/17/26 25/16/25 27/18/27 
f 27/18/27 28/19/28 26/17/26 
f 5/5/5 9/9/9 29/20/29 
f 29/20/29 25/16/25 5/5/5 
f 25/16/25 29/20/29 30/21/30 
f 30/21/30 27/18/27 25/16/25 
f 9/9/9 12/12/12 31/22/31 
f 31/22/31 29/20/29 9/9/9 
f 29/20/29 31/22/31 32/23/32 
f 32/23/32 30/21/30 29/20/29 
f 12/12/12 15/15/15 33/24/33 
f 33/24/33 31/22/31 12/12/12 
f 31/22/31 33/24/33 34/25/34 
f 34/25/34 32/23/32 31/22/31 
f 15/6/15 18/5/18 35/16/35 
f 35/16/35 33/17/33 15/6/15 
f 33/17/33 35/16/35 36/18/36 
f 36/18/36 34/19/34 33/17/33 
f 18/5/18 21/9/21 37/20/37 
f 37/20/37 35/16/35 18/5/18 
f 35/16/35 37/20/37 38/21/38 
f 38/21/38 36/18/36 35/16/35 
f 21/9/21 24/12/24 39/22/39 
f 39/22/39 37/20/37 21/9/21 
f 37/20/37 39/22/39 40/23/40 
f 40/23/40 38/21/38 37/20/37 
f 24/12/24 6/15/6 26/24/26 
f 26/24/26 39/22/39 24/12/24 
f 39/22/39 26/24/26 28/25/28 
f 28/25/28 40/23/40 39/22/39 
f 28/19/28 27/18/27 41/26/41 
f 41/26/41 42/27/42 28/19/28 
f 42/27/42 41/26/41 43/28/43 
f 43/28/43 44/29/44 42/27/42 
f 27/18/27 30/21/30 45/30/45 
f 45/30/45 41/26/41 27/18/27 
f 41/26/41 45/30/45 46/31/46 
f 46/31/46 43/28/43 41/26/41 
f 30/21/30 32/23/32 47/32/47 
f 47/32/47 45/30/45 30/21/30 
f 45/30/45 47/32/47 48/33/48 
f 48/33/48 46/31/46 45/30/45 
f 32/23/32 34/25/34 49/34/49 
f 49/34/49 47/32/47 32/23/32 
f 47/32/47 49/34/49 50/35/50 
f 50/35/50 48/33/48 47/32/47 
f 34/19/34 36/18/36 51/26/51 
f 51/26/51 49/27/49 34/19/34 
f 49/27/49 51/26/51 52/28/52 
f 52/28/52 50/29/50 49/27/49 
f 36/18/36 38/21/38 53/30/53 
f 53/30/53 51/26/51 36/18/36 
f 51/26/51 53/30/53 54/31/54 
f 54/31/54 52/28/52 51/26/51 
f 38/21/38 40/23/40 55/32/55 
f 55/32/55 53/30/53 38/21/38 
f 53/30/53 55/32/55 56/33/56 
f 56/33/56 54/31/54 53/30/53 
f 40/23/40 28/25/28 42/34/42 
f 42/34/42 55/32/55 40/23/40 
f 55/32/55 42/34/42 44/35/44 
f 44/35/44 56/33/56 55/32/55 
f 44/29/44 43/28/43 57/36/57 
f 57/36/57 58/37/58 44/29/44 
f 58/37/58 57/36/57 59/38/59 
f 59/38/59 59/39/59 58/37/58 
f 43/28/43 46/31/46 60/40/60 
f 60/40/60 57/36/57 43/28/43 
f 57/36/57 60/40/60 59/41/59 
f 59/41/59 59/38/59 57/36/57 
f 46/31/46 48/33/48 61/42/61 
f 61/42/61 60/40/60 46/31/46 
f 60/40/60 61/42/61 59/43/59 
f 59/43/59 59/41/59 60/40/60 
f 48/33/48 50/35/50 62/44/62 
f 62/44/62 61/42/61 48/33/48 
f 61/42/61 62/44/62 59/45/59 
f 59/45/59 59/43/59 61/42/61 
f 50/29/50 52/28/52 63/36/63 
f 63/36/63 62/37/62 50/29/50 
f 62/37/62 63/36/63 59/38/59 
f 59/38/59 59/39/59 62/37/62 
f 52/28/52 54/31/54 64/40/64 
f 64/40/64 63/36/63 52/28/52 
f 63/36/63 64/40/64 59/41/59 
f 59/41/59 59/38/59 63/36/63 
f 54/31/54 56/33/56 65/42/65 
f 65/42/65 64/40/64 54/31/54 
f 64/40/64 65/42/65 59/43/59 
f 59/43/59 59/41/59 64/40/64 
f 56/33/56 44/35/44 58/44/58 
f 58/44/58 65/42/65 56/33/56 
f 65/42/65 58/44/58 59/45/59 
f 59/45/59 59/43/59 65/42/65 
f 66/21/66 67/46/67 68/47/68 
f 68/47/68 69/48/69 66/21/66 
f 69/48/69 68/47/68 70/49/70 
f 70/49/70 71/50/71 69/48/69 
f 67/46/67 72/23/72 73/51/73 
f 73/51/73 68/47/68 67/46/67 
f 68/47/68 73/51/73 74/52/74 
f 74/52/74 70/49/70 68/47/68 
f 72/23/72 75/53/75 76/54/76 
f 76/54/76 73/51/73 72/23/72 
f 73/51/73 76/54/76 77/55/77 
f 77/55/77 74/52/74 73/51/73 
f 75/53/75 66/25/66 69/56/69 
f 69/56/69 76/54/76 75/53/75 
f 76/54/76 69/56/69 71/57/71 
f 71/57/71 77/55/77 76/54/76 
f 71/50/71 70/49/70 78/58/78 
f 78/58/78 79/59/79 71/50/71 
f 79/59/79 78/58/78 80/60/80 
f 80/60/80 34/41/81 79/59/79 
f 70/49/70 74/52/74 81/61/82 
f 81/61/82 78/58/78 70/49/70 
f 78/58/78 81/61/82 82/43/83 
f 82/43/83 80/60/80 78/58/78 
f 74/52/74 77/55/77 83/62/84 
f 83/62/84 81/61/82 74/52/74 
f 81/61/82 83/62/84 84/63/85 
f 84/63/85 82/43/83 81/61/82 
f 77/55/77 71/57/71 79/64/79 
f 79/64/79 83/62/84 77/55/77 
f 83/62/84 79/64/79 34/45/81 
f 34/45/81 84/63/85 83/62/84 
f 85/43/86 86/60/87 87/65/88 
f 87/65/88 88/66/89 85/43/86 
f 88/66/89 87/65/88 89/67/90 
f 89/67/90 90/68/91 88/66/89 
f 86/60/87 91/41/92 92/69/93 
f 92/69/93 87/65/88 86/60/87 
f 87/65/88 92/69/93 93/70/94 
f 93/70/94 89/67/90 87/65/88 
f 91/45/92 94/63/95 95/71/96 
f 95/71/96 92/72/93 91/45/92 
f 92/72/93 95/71/96 96/73/97 
f 96/73/97 93/74/94 92/72/93 
f 94/63/95 85/43/86 88/66/89 
f 88/66/89 95/71/96 94/63/95 
f 95/71/96 88/66/89 90/68/91 
f 90/68/91 96/73/97 95/71/96 
f 90/68/91 89/67/90 97/75/98 
f 97/75/98 98/76/99 90/68/91 
f 98/76/99 97/75/98 99/46/100 
f 99/46/100 100/23/101 98/76/99 
f 89/67/90 93/70/94 101/77/102 
f 101/77/102 97/75/98 89/67/90 
f 97/75/98 101/77/102 102/21/103 
f 102/21/103 99/46/100 97/75/98 
f 93/74/94 96/73/97 103/78/104 
f 103/78/104 101/79/102 93/74/94 
f 101/79/102 103/78/104 104/53/105 
f 104/53/105 102/25/103 101/79/102 
f 96/73/97 90/68/91 98/76/99 
f 98/76/99 103/78/104 96/73/97 
f 103/78/104 98/76/99 100/23/101 
f 100/23/101 104/53/105 103/78/104 
f 105/21/106 105/46/106 106/49/107 
f 106/49/107 107/50/108 105/21/106 
f 107/50/108 106/49/107 108/60/109 
f 108/60/109 109/41/110 107/50/108 
f 105/46/106 105/23/106 110/52/111 
f 110/52/111 106/49/107 105/46/106 
f 106/49/107 110/52/111 111/43/112 
f 111/43/112 108/60/109 106/49/107 
f 105/23/106 105/53/106 112/55/113 
f 112/55/113 110/52/111 105/23/106 
f 110/52/111 112/55/113 113/63/114 
f 113/63/114 111/43/112 110/52/111 
f 105/53/106 105/25/106 114/57/115 
f 114/57/115 112/55/113 105/53/106 
f 112/55/113 114/57/115 115/45/116 
f 115/45/116 113/63/114 112/55/113 
f 105/21/106 105/46/106 116/49/117 
f 116/49/117 114/50/115 105/21/106 
f 114/50/115 116/49/117 117/60/118 
f 117/60/118 115/41/116 114/50/115 
f 105/46/106 105/23/106 118/52/119 
f 118/52/119 116/49/117 105/46/106 
f 116/49/117 118/52/119 119/43/120 
f 119/43/120 117/60/118 116/49/117 
f 105/23/106 105/53/106 120/55/121 
f 120/55/121 118/52/119 105/23/106 
f 118/52/119 120/55/121 121/63/122 
f 121/63/122 119/43/120 118/52/119 
f 105/53/106 105/25/106 107/57/108 
f 107/57/108 120/55/121 105/53/106 
f 120/55/121 107/57/108 109/45/110 
f 109/45/110 121/63/122 120/55/121 
f 109/21/110 108/46/109 122/49/123 
f 122/49/123 123/50/124 109/21/110 
f 123/50/124 122/49/123 124/60/125 
f 124/60/125 125/41/126 123/50/124 
f 108/46/109 111/23/112 126/52/127 
f 126/52/127 122/49/123 108/46/109 
f 122/49/123 126/52/127 127/43/128 
f 127/43/128 124/60/125 122/49/123 
f 111/23/112 113/53/114 128/55/129 
f 128/55/129 126/52/127 111/23/112 
f 126/52/127 128/55/129 129/63/130 
f 129/63/130 127/43/128 126/52/127 
f 113/53/114 115/25/116 130/57/131 
f 130/57/131 128/55/129 113/53/114 
f 128/55/129 130/57/131 131/45/132 
f 131/45/132 129/63/130 128/55/129 
f 115/21/116 117/46/118 132/49/133 
f 132/49/133 130/50/131 115/21/116 
f 130/50/131 132/49/133 133/60/134 
f 133/60/134 131/41/132 130/50/131 
f 117/46/118 119/23/120 134/52/135 
f 134/52/135 132/49/133 117/46/118 
f 132/49/133 134/52/135 135/43/136 
f 135/43/136 133/60/134 132/49/133 
f 119/23/120 121/53/122 136/55/137 
f 136/55/137 134/52/135 119/23/120 
f 134/52/135 136/55/137 137/63/138 
f 137/63/138 135/43/136 134/52/135 
f 121/53/122 109/25/110 123/57/124 
f 123/57/124 136/55/137 121/53/122 
f 136/55/137 123/57/124 125/45/126 
f 125/45/126 137/63/138 136/55/137 
# 256 faces

