# 3ds Max Wavefront OBJ Exporter v0.97b - (c)2007 guruware
# File Created: 15.12.2019 04:18:38

mtllib number_7.mtl

#
# object Box001
#

v  -17.8256 32.4252 0.0000
v  -17.8256 42.4252 0.0000
v  12.1744 42.4252 0.0000
v  12.1744 32.4252 0.0000
v  -17.8256 32.4252 10.0000
v  12.1744 32.4252 10.0000
v  12.1744 42.4252 10.0000
v  -17.8256 42.4252 10.0000
v  -7.5910 14.3353 0.0000
v  -16.9880 10.9151 0.0000
v  -27.2486 39.1058 0.0000
v  -17.8516 42.5260 0.0000
v  -7.5910 14.3353 10.0000
v  -17.8516 42.5260 10.0000
v  -27.2486 39.1058 10.0000
v  -16.9880 10.9151 10.0000
v  -0.5963 -4.9333 -0.0000
v  -9.9933 -8.3535 0.0000
v  -20.2539 19.8373 0.0000
v  -10.8569 23.2575 -0.0000
v  -0.5963 -4.9333 10.0000
v  -10.8569 23.2575 10.0000
v  -20.2539 19.8373 10.0000
v  -9.9933 -8.3535 10.0000
# 24 vertices

vn 0.0000 0.0000 -1.0000
vn 0.0000 -0.0000 1.0000
vn 0.0000 -1.0000 -0.0000
vn 1.0000 0.0000 -0.0000
vn 0.0000 1.0000 0.0000
vn -1.0000 0.0000 -0.0000
vn -0.0000 -0.0000 -1.0000
vn 0.0000 0.0000 1.0000
vn 0.9397 0.3420 -0.0000
vn -0.3420 0.9397 0.0000
vn -0.9397 -0.3420 0.0000
vn 0.3420 -0.9397 -0.0000
vn 0.3420 -0.9397 0.0000
# 13 vertex normals

vt 1.0000 0.0000 0.0000
vt 1.0000 1.0000 0.0000
vt 0.0000 1.0000 0.0000
vt 0.0000 0.0000 0.0000
# 4 texture coords

o Box001
g Box001
usemtl wire_166229229
s 2
f 1/1/1 2/2/1 3/3/1 
f 3/3/1 4/4/1 1/1/1 
s 4
f 5/4/2 6/1/2 7/2/2 
f 7/2/2 8/3/2 5/4/2 
s 8
f 1/4/3 4/1/3 6/2/3 
f 6/2/3 5/3/3 1/4/3 
s 16
f 4/4/4 3/1/4 7/2/4 
f 7/2/4 6/3/4 4/4/4 
s 32
f 3/4/5 2/1/5 8/2/5 
f 8/2/5 7/3/5 3/4/5 
s 64
f 2/4/6 1/1/6 5/2/6 
f 5/2/6 8/3/6 2/4/6 
s 2
f 9/1/7 10/2/7 11/3/7 
f 11/3/7 12/4/7 9/1/7 
s 4
f 13/4/8 14/1/8 15/2/8 
f 15/2/8 16/3/8 13/4/8 
s 8
f 9/4/9 12/1/9 14/2/9 
f 14/2/9 13/3/9 9/4/9 
s 16
f 12/4/10 11/1/10 15/2/10 
f 15/2/10 14/3/10 12/4/10 
s 32
f 11/4/11 10/1/11 16/2/11 
f 16/2/11 15/3/11 11/4/11 
s 64
f 10/4/12 9/1/12 13/2/12 
f 13/2/12 16/3/12 10/4/12 
s 2
f 17/1/7 18/2/7 19/3/7 
f 19/3/7 20/4/7 17/1/7 
s 4
f 21/4/8 22/1/8 23/2/8 
f 23/2/8 24/3/8 21/4/8 
s 8
f 17/4/9 20/1/9 22/2/9 
f 22/2/9 21/3/9 17/4/9 
s 16
f 20/4/10 19/1/10 23/2/10 
f 23/2/10 22/3/10 20/4/10 
s 32
f 19/4/11 18/1/11 24/2/11 
f 24/2/11 23/3/11 19/4/11 
s 64
f 18/4/13 17/1/13 21/2/13 
f 21/2/13 24/3/13 18/4/13 
# 36 faces

