# 3ds Max Wavefront OBJ Exporter v0.97b - (c)2007 guruware
# File Created: 23.11.2019 20:41:57

mtllib box.mtl

#
# object Box001
#

v  -8.5044 -8.0000 8.2111
v  -8.5044 -8.0000 -8.2111
v  8.5044 -8.0000 -8.2111
v  8.5044 -8.0000 8.2111
v  -8.5044 8.4223 8.2111
v  8.5044 8.4223 8.2111
v  8.5044 8.4223 -8.2111
v  -8.5044 8.4223 -8.2111
# 8 vertices

vn 0.0000 -1.0000 -0.0000
vn 0.0000 1.0000 -0.0000
vn 0.0000 0.0000 1.0000
vn 1.0000 0.0000 -0.0000
vn 0.0000 0.0000 -1.0000
vn -1.0000 0.0000 -0.0000
# 6 vertex normals

vt 0.6525 0.3680 0.0000
vt 0.9687 0.3680 0.0000
vt 0.9687 0.6955 0.0000
vt 0.6525 0.6955 0.0000
vt 0.3362 0.3680 0.0000
vt 0.3362 0.6955 0.0000
vt 0.0200 0.6955 0.0000
vt 0.0200 0.3680 0.0000
vt 0.0200 0.0200 0.0000
vt 0.3362 0.0200 0.0000
vt 0.3362 0.3362 0.0000
vt 0.0200 0.3362 0.0000
vt 0.6638 0.0200 0.0000
vt 0.6638 0.3362 0.0000
vt 0.9800 0.0200 0.0000
vt 0.9800 0.3362 0.0000
# 16 texture coords

o Box001
g Box001
usemtl 01___Default
f 1/1/1 2/2/1 3/3/1 
f 3/3/1 4/4/1 1/1/1 
f 5/5/2 6/6/2 7/7/2 
f 7/7/2 8/8/2 5/5/2 
f 1/1/3 4/4/3 6/6/3 
f 6/6/3 5/5/3 1/1/3 
f 4/9/4 3/10/4 7/11/4 
f 7/11/4 6/12/4 4/9/4 
f 3/10/5 2/13/5 8/14/5 
f 8/14/5 7/11/5 3/10/5 
f 2/13/6 1/15/6 5/16/6 
f 5/16/6 8/14/6 2/13/6 
# 12 faces

