# 3ds Max Wavefront OBJ Exporter v0.97b - (c)2007 guruware
# File Created: 15.12.2019 03:54:46

mtllib number_4.mtl

#
# object Box002
#

v  -16.3943 40.3865 5.0000
v  -16.3943 40.3865 -5.0000
v  -16.3943 10.3865 -5.0000
v  -16.3943 10.3865 5.0000
v  -6.3943 40.3865 5.0000
v  -6.3943 10.3865 5.0000
v  -6.3943 10.3865 -5.0000
v  -6.3943 40.3865 -5.0000
v  -8.1264 10.4730 5.0000
v  -8.1264 10.4730 -5.0000
v  21.8736 10.4730 -5.0000
v  21.8736 10.4730 5.0000
v  -8.1264 20.4730 5.0000
v  21.8736 20.4730 5.0000
v  21.8736 20.4730 -5.0000
v  -8.1264 20.4730 -5.0000
v  -16.4249 10.4730 5.0000
v  -16.4249 10.4730 -5.0000
v  13.5751 10.4730 -5.0000
v  13.5751 10.4730 5.0000
v  -16.4249 20.4730 5.0000
v  13.5751 20.4730 5.0000
v  13.5751 20.4730 -5.0000
v  -16.4249 20.4730 -5.0000
v  3.5412 40.5280 5.0000
v  3.5412 40.5280 -5.0000
v  3.5412 -0.0431 -5.0000
v  3.5412 -0.0431 5.0000
v  13.5412 40.5280 5.0000
v  13.5412 -0.0431 5.0000
v  13.5412 -0.0431 -5.0000
v  13.5412 40.5280 -5.0000
# 32 vertices

vn -1.0000 0.0000 -0.0000
vn 1.0000 -0.0000 -0.0000
vn 0.0000 0.0000 1.0000
vn -0.0000 -1.0000 -0.0000
vn 0.0000 0.0000 -1.0000
vn 0.0000 1.0000 -0.0000
vn 0.0000 -1.0000 -0.0000
vn -0.0000 1.0000 -0.0000
vn -0.0000 0.0000 1.0000
vn 0.0000 -0.0000 -1.0000
# 10 vertex normals

vt 1.0000 0.0000 0.0000
vt 1.0000 1.0000 0.0000
vt 0.0000 1.0000 0.0000
vt 0.0000 0.0000 0.0000
# 4 texture coords

o Box002
g Box002
usemtl wire_225088199
s 2
f 1/1/1 2/2/1 3/3/1 
f 3/3/1 4/4/1 1/1/1 
s 4
f 5/4/2 6/1/2 7/2/2 
f 7/2/2 8/3/2 5/4/2 
s 8
f 1/4/3 4/1/3 6/2/3 
f 6/2/3 5/3/3 1/4/3 
s 16
f 4/4/4 3/1/4 7/2/4 
f 7/2/4 6/3/4 4/4/4 
s 32
f 3/4/5 2/1/5 8/2/5 
f 8/2/5 7/3/5 3/4/5 
s 64
f 2/4/6 1/1/6 5/2/6 
f 5/2/6 8/3/6 2/4/6 
s 2
f 9/1/7 10/2/7 11/3/7 
f 11/3/7 12/4/7 9/1/7 
s 4
f 13/4/8 14/1/8 15/2/8 
f 15/2/8 16/3/8 13/4/8 
s 8
f 9/4/3 12/1/3 14/2/3 
f 14/2/3 13/3/3 9/4/3 
s 16
f 12/4/2 11/1/2 15/2/2 
f 15/2/2 14/3/2 12/4/2 
s 32
f 11/4/5 10/1/5 16/2/5 
f 16/2/5 15/3/5 11/4/5 
s 64
f 10/4/1 9/1/1 13/2/1 
f 13/2/1 16/3/1 10/4/1 
s 2
f 17/1/7 18/2/7 19/3/7 
f 19/3/7 20/4/7 17/1/7 
s 4
f 21/4/8 22/1/8 23/2/8 
f 23/2/8 24/3/8 21/4/8 
s 8
f 17/4/3 20/1/3 22/2/3 
f 22/2/3 21/3/3 17/4/3 
s 16
f 20/4/2 19/1/2 23/2/2 
f 23/2/2 22/3/2 20/4/2 
s 32
f 19/4/5 18/1/5 24/2/5 
f 24/2/5 23/3/5 19/4/5 
s 64
f 18/4/1 17/1/1 21/2/1 
f 21/2/1 24/3/1 18/4/1 
s 2
f 25/1/1 26/2/1 27/3/1 
f 27/3/1 28/4/1 25/1/1 
s 4
f 29/4/2 30/1/2 31/2/2 
f 31/2/2 32/3/2 29/4/2 
s 8
f 25/4/9 28/1/9 30/2/9 
f 30/2/9 29/3/9 25/4/9 
s 16
f 28/4/4 27/1/4 31/2/4 
f 31/2/4 30/3/4 28/4/4 
s 32
f 27/4/10 26/1/10 32/2/10 
f 32/2/10 31/3/10 27/4/10 
s 64
f 26/4/6 25/1/6 29/2/6 
f 29/2/6 32/3/6 26/4/6 
# 48 faces

