# 3ds Max Wavefront OBJ Exporter v0.97b - (c)2007 guruware
# File Created: 15.12.2019 01:39:54

mtllib title_pont.mtl

#
# object Box002
#

v  -230.3117 284.5930 10.0000
v  -230.3117 284.5930 -10.0000
v  -196.1097 378.5622 -10.0000
v  -196.1097 378.5622 10.0000
v  -249.1056 291.4333 10.0000
v  -214.9035 385.4026 10.0000
v  -214.9035 385.4026 -10.0000
v  -249.1056 291.4333 -10.0000
v  -295.2231 366.7349 10.0000
v  -295.2231 366.7349 -10.0000
v  -195.2230 366.7349 -10.0000
v  -195.2230 366.7349 10.0000
v  -295.2230 386.7349 10.0000
v  -195.2231 386.7349 10.0000
v  -195.2231 386.7349 -10.0000
v  -295.2230 386.7349 -10.0000
v  -152.9900 288.4272 10.0000
v  -152.9900 288.4272 -10.0000
v  -152.9900 388.4272 -10.0000
v  -152.9900 388.4272 10.0000
v  -172.9900 288.4272 10.0000
v  -172.9900 388.4272 10.0000
v  -172.9900 388.4272 -10.0000
v  -172.9900 288.4272 -10.0000
v  -249.9682 255.3384 10.0000
v  -249.9682 255.3384 -10.0000
v  -149.9682 255.3384 -10.0000
v  -149.9682 255.3384 10.0000
v  -249.9682 275.3384 10.0000
v  -149.9682 275.3384 10.0000
v  -149.9682 275.3384 -10.0000
v  -249.9682 275.3384 -10.0000
v  -149.5813 234.4871 10.0000
v  -149.5813 234.4871 -10.0000
v  -149.5813 263.5630 -10.0000
v  -149.5813 263.5630 10.0000
v  -169.5813 234.4871 10.0000
v  -169.5813 263.5630 10.0000
v  -169.5813 263.5630 -10.0000
v  -169.5813 234.4871 -10.0000
v  -250.1175 222.7081 10.0000
v  -250.1175 222.7081 -10.0000
v  -150.1175 222.7081 -10.0000
v  -150.1175 222.7081 10.0000
v  -250.1175 242.7081 10.0000
v  -150.1175 242.7081 10.0000
v  -150.1175 242.7081 -10.0000
v  -250.1175 242.7081 -10.0000
v  -230.1574 202.8326 10.0000
v  -230.1574 202.8326 -10.0000
v  -230.1574 231.9085 -10.0000
v  -230.1574 231.9085 10.0000
v  -250.1574 202.8326 10.0000
v  -250.1574 231.9085 10.0000
v  -250.1574 231.9085 -10.0000
v  -250.1574 202.8326 -10.0000
v  -250.1175 190.4382 10.0000
v  -250.1175 190.4382 -10.0000
v  -150.1175 190.4382 -10.0000
v  -150.1175 190.4382 10.0000
v  -250.1175 210.4382 10.0000
v  -150.1175 210.4382 10.0000
v  -150.1175 210.4382 -10.0000
v  -250.1175 210.4382 -10.0000
# 64 vertices

vn 0.9397 -0.3420 -0.0000
vn -0.9397 0.3420 -0.0000
vn 0.0000 0.0000 1.0000
vn 0.3420 0.9397 -0.0000
vn 0.0000 0.0000 -1.0000
vn -0.3420 -0.9397 -0.0000
vn -0.0000 -1.0000 -0.0000
vn 0.0000 1.0000 -0.0000
vn 1.0000 0.0000 -0.0000
vn -1.0000 0.0000 -0.0000
vn -1.0000 -0.0000 -0.0000
vn -0.0000 1.0000 -0.0000
vn 0.0000 -1.0000 -0.0000
vn -0.0000 -0.0000 -1.0000
vn 0.0000 -0.0000 -1.0000
# 15 vertex normals

vt 1.0000 0.0000 0.0000
vt 1.0000 1.0000 0.0000
vt 0.0000 1.0000 0.0000
vt 0.0000 0.0000 0.0000
# 4 texture coords

o Box002
g Box002
usemtl wire_225088199
s 2
f 1/1/1 2/2/1 3/3/1 
f 3/3/1 4/4/1 1/1/1 
s 4
f 5/4/2 6/1/2 7/2/2 
f 7/2/2 8/3/2 5/4/2 
s 8
f 1/4/3 4/1/3 6/2/3 
f 6/2/3 5/3/3 1/4/3 
s 16
f 4/4/4 3/1/4 7/2/4 
f 7/2/4 6/3/4 4/4/4 
s 32
f 3/4/5 2/1/5 8/2/5 
f 8/2/5 7/3/5 3/4/5 
s 64
f 2/4/6 1/1/6 5/2/6 
f 5/2/6 8/3/6 2/4/6 
s 2
f 9/1/7 10/2/7 11/3/7 
f 11/3/7 12/4/7 9/1/7 
s 4
f 13/4/8 14/1/8 15/2/8 
f 15/2/8 16/3/8 13/4/8 
s 8
f 9/4/3 12/1/3 14/2/3 
f 14/2/3 13/3/3 9/4/3 
s 16
f 12/4/9 11/1/9 15/2/9 
f 15/2/9 14/3/9 12/4/9 
s 32
f 11/4/5 10/1/5 16/2/5 
f 16/2/5 15/3/5 11/4/5 
s 64
f 10/4/10 9/1/10 13/2/10 
f 13/2/10 16/3/10 10/4/10 
s 2
f 17/1/9 18/2/9 19/3/9 
f 19/3/9 20/4/9 17/1/9 
s 4
f 21/4/11 22/1/11 23/2/11 
f 23/2/11 24/3/11 21/4/11 
s 8
f 17/4/3 20/1/3 22/2/3 
f 22/2/3 21/3/3 17/4/3 
s 16
f 20/4/12 19/1/12 23/2/12 
f 23/2/12 22/3/12 20/4/12 
s 32
f 19/4/5 18/1/5 24/2/5 
f 24/2/5 23/3/5 19/4/5 
s 64
f 18/4/13 17/1/13 21/2/13 
f 21/2/13 24/3/13 18/4/13 
s 2
f 25/1/7 26/2/7 27/3/7 
f 27/3/7 28/4/7 25/1/7 
s 4
f 29/4/12 30/1/12 31/2/12 
f 31/2/12 32/3/12 29/4/12 
s 8
f 25/4/3 28/1/3 30/2/3 
f 30/2/3 29/3/3 25/4/3 
s 16
f 28/4/9 27/1/9 31/2/9 
f 31/2/9 30/3/9 28/4/9 
s 32
f 27/4/5 26/1/5 32/2/5 
f 32/2/5 31/3/5 27/4/5 
s 64
f 26/4/11 25/1/11 29/2/11 
f 29/2/11 32/3/11 26/4/11 
s 2
f 33/1/9 34/2/9 35/3/9 
f 35/3/9 36/4/9 33/1/9 
s 4
f 37/4/11 38/1/11 39/2/11 
f 39/2/11 40/3/11 37/4/11 
s 8
f 33/4/3 36/1/3 38/2/3 
f 38/2/3 37/3/3 33/4/3 
s 16
f 36/4/8 35/1/8 39/2/8 
f 39/2/8 38/3/8 36/4/8 
s 32
f 35/4/14 34/1/15 40/2/14 
f 40/2/14 39/3/14 35/4/14 
s 64
f 34/4/13 33/1/13 37/2/13 
f 37/2/13 40/3/13 34/4/13 
s 2
f 41/1/7 42/2/7 43/3/7 
f 43/3/7 44/4/7 41/1/7 
s 4
f 45/4/12 46/1/12 47/2/12 
f 47/2/12 48/3/12 45/4/12 
s 8
f 41/4/3 44/1/3 46/2/3 
f 46/2/3 45/3/3 41/4/3 
s 16
f 44/4/9 43/1/9 47/2/9 
f 47/2/9 46/3/9 44/4/9 
s 32
f 43/4/5 42/1/5 48/2/5 
f 48/2/5 47/3/5 43/4/5 
s 64
f 42/4/11 41/1/11 45/2/11 
f 45/2/11 48/3/11 42/4/11 
s 2
f 49/1/9 50/2/9 51/3/9 
f 51/3/9 52/4/9 49/1/9 
s 4
f 53/4/11 54/1/11 55/2/11 
f 55/2/11 56/3/11 53/4/11 
s 8
f 49/4/3 52/1/3 54/2/3 
f 54/2/3 53/3/3 49/4/3 
s 16
f 52/4/8 51/1/8 55/2/8 
f 55/2/8 54/3/8 52/4/8 
s 32
f 51/4/14 50/1/14 56/2/14 
f 56/2/14 55/3/14 51/4/14 
s 64
f 50/4/7 49/1/7 53/2/7 
f 53/2/7 56/3/7 50/4/7 
s 2
f 57/1/13 58/2/13 59/3/13 
f 59/3/13 60/4/13 57/1/13 
s 4
f 61/4/12 62/1/12 63/2/12 
f 63/2/12 64/3/12 61/4/12 
s 8
f 57/4/3 60/1/3 62/2/3 
f 62/2/3 61/3/3 57/4/3 
s 16
f 60/4/9 59/1/9 63/2/9 
f 63/2/9 62/3/9 60/4/9 
s 32
f 59/4/5 58/1/5 64/2/5 
f 64/2/5 63/3/5 59/4/5 
s 64
f 58/4/11 57/1/11 61/2/11 
f 61/2/11 64/3/11 58/4/11 
# 96 faces

#
# object Box003
#

v  -120.5398 368.2629 9.4816
v  -120.5398 368.2629 -10.5184
v  -20.5398 368.2629 -10.5184
v  -20.5398 368.2629 9.4816
v  -120.5398 388.2629 9.4816
v  -20.5398 388.2629 9.4816
v  -20.5398 388.2629 -10.5184
v  -120.5398 388.2629 -10.5184
v  -54.5700 285.5966 9.4816
v  -54.5700 285.5966 -10.5184
v  -20.3680 379.5658 -10.5184
v  -20.3680 379.5658 9.4816
v  -73.3639 292.4370 9.4816
v  -39.1619 386.4062 9.4816
v  -39.1619 386.4062 -10.5184
v  -73.3639 292.4370 -10.5184
v  -19.1666 329.7909 9.4816
v  -19.1666 329.7909 -10.5184
v  14.2780 329.7909 -10.5184
v  14.2780 329.7909 9.4816
v  -19.1666 349.7909 9.4816
v  14.2780 349.7909 9.4816
v  14.2780 349.7909 -10.5184
v  -19.1666 349.7909 -10.5184
v  30.5092 291.0169 9.4816
v  30.5092 291.0169 -10.5184
v  30.5092 391.0169 -10.5184
v  30.5092 391.0169 9.4816
v  10.5092 291.0169 9.4816
v  10.5092 391.0169 9.4816
v  10.5092 391.0169 -10.5184
v  10.5092 291.0169 -10.5184
v  -28.6238 195.6337 9.4816
v  -28.6238 195.6337 -10.5184
v  -28.6238 269.5860 -10.5184
v  -28.6238 269.5860 9.4816
v  -48.6238 195.6337 9.4816
v  -48.6238 269.5860 9.4816
v  -48.6238 269.5860 -10.5184
v  -48.6238 195.6337 -10.5184
v  -35.9993 195.6449 9.4816
v  -35.9993 195.6449 -10.5184
v  45.2722 195.6449 -10.5184
v  45.2722 195.6449 9.4816
v  -35.9993 215.6449 9.4816
v  45.2722 215.6449 9.4816
v  45.2722 215.6449 -10.5184
v  -35.9993 215.6449 -10.5184
# 48 vertices

vn 0.0000 -1.0000 -0.0000
vn 0.0000 1.0000 -0.0000
vn 0.0000 0.0000 1.0000
vn 1.0000 0.0000 -0.0000
vn 0.0000 0.0000 -1.0000
vn -1.0000 0.0000 -0.0000
vn 0.9397 -0.3420 -0.0000
vn -0.9397 0.3420 -0.0000
vn 0.3420 0.9397 -0.0000
vn -0.3420 -0.9397 -0.0000
vn -1.0000 -0.0000 0.0000
vn -0.0000 -0.0000 -1.0000
# 12 vertex normals

vt 1.0000 0.0000 0.0000
vt 1.0000 1.0000 0.0000
vt 0.0000 1.0000 0.0000
vt 0.0000 0.0000 0.0000
# 4 texture coords

o Box003
g Box003
usemtl wire_113135006
s 2
f 65/5/16 66/6/16 67/7/16 
f 67/7/16 68/8/16 65/5/16 
s 4
f 69/8/17 70/5/17 71/6/17 
f 71/6/17 72/7/17 69/8/17 
s 8
f 65/8/18 68/5/18 70/6/18 
f 70/6/18 69/7/18 65/8/18 
s 16
f 68/8/19 67/5/19 71/6/19 
f 71/6/19 70/7/19 68/8/19 
s 32
f 67/8/20 66/5/20 72/6/20 
f 72/6/20 71/7/20 67/8/20 
s 64
f 66/8/21 65/5/21 69/6/21 
f 69/6/21 72/7/21 66/8/21 
s 2
f 73/5/22 74/6/22 75/7/22 
f 75/7/22 76/8/22 73/5/22 
s 4
f 77/8/23 78/5/23 79/6/23 
f 79/6/23 80/7/23 77/8/23 
s 8
f 73/8/18 76/5/18 78/6/18 
f 78/6/18 77/7/18 73/8/18 
s 16
f 76/8/24 75/5/24 79/6/24 
f 79/6/24 78/7/24 76/8/24 
s 32
f 75/8/20 74/5/20 80/6/20 
f 80/6/20 79/7/20 75/8/20 
s 64
f 74/8/25 73/5/25 77/6/25 
f 77/6/25 80/7/25 74/8/25 
s 2
f 81/5/16 82/6/16 83/7/16 
f 83/7/16 84/8/16 81/5/16 
s 4
f 85/8/17 86/5/17 87/6/17 
f 87/6/17 88/7/17 85/8/17 
s 8
f 81/8/18 84/5/18 86/6/18 
f 86/6/18 85/7/18 81/8/18 
s 16
f 84/8/19 83/5/19 87/6/19 
f 87/6/19 86/7/19 84/8/19 
s 32
f 83/8/20 82/5/20 88/6/20 
f 88/6/20 87/7/20 83/8/20 
s 64
f 82/8/21 81/5/21 85/6/21 
f 85/6/21 88/7/21 82/8/21 
s 2
f 89/5/19 90/6/19 91/7/19 
f 91/7/19 92/8/19 89/5/19 
s 4
f 93/8/21 94/5/21 95/6/21 
f 95/6/21 96/7/21 93/8/21 
s 8
f 89/8/18 92/5/18 94/6/18 
f 94/6/18 93/7/18 89/8/18 
s 16
f 92/8/17 91/5/17 95/6/17 
f 95/6/17 94/7/17 92/8/17 
s 32
f 91/8/20 90/5/20 96/6/20 
f 96/6/20 95/7/20 91/8/20 
s 64
f 90/8/16 89/5/16 93/6/16 
f 93/6/16 96/7/16 90/8/16 
s 2
f 97/5/19 98/6/19 99/7/19 
f 99/7/19 100/8/19 97/5/19 
s 4
f 101/8/26 102/5/26 103/6/26 
f 103/6/26 104/7/26 101/8/26 
s 8
f 97/8/18 100/5/18 102/6/18 
f 102/6/18 101/7/18 97/8/18 
s 16
f 100/8/17 99/5/17 103/6/17 
f 103/6/17 102/7/17 100/8/17 
s 32
f 99/8/27 98/5/27 104/6/27 
f 104/6/27 103/7/27 99/8/27 
s 64
f 98/8/16 97/5/16 101/6/16 
f 101/6/16 104/7/16 98/8/16 
s 2
f 105/5/16 106/6/16 107/7/16 
f 107/7/16 108/8/16 105/5/16 
s 4
f 109/8/17 110/5/17 111/6/17 
f 111/6/17 112/7/17 109/8/17 
s 8
f 105/8/18 108/5/18 110/6/18 
f 110/6/18 109/7/18 105/8/18 
s 16
f 108/8/19 107/5/19 111/6/19 
f 111/6/19 110/7/19 108/8/19 
s 32
f 107/8/20 106/5/20 112/6/20 
f 112/6/20 111/7/20 107/8/20 
s 64
f 106/8/21 105/5/21 109/6/21 
f 109/6/21 112/7/21 106/8/21 
# 72 faces

#
# object Box004
#

v  74.1146 249.5129 0.0000
v  74.1146 392.6677 0.0000
v  94.1146 392.6677 0.0000
v  94.1146 249.5129 0.0000
v  74.1146 249.5129 20.0000
v  94.1146 249.5129 20.0000
v  94.1146 392.6677 20.0000
v  74.1146 392.6677 20.0000
v  165.3195 251.8367 0.0000
v  74.3469 251.8367 0.0000
v  74.3469 271.8367 0.0000
v  165.3195 271.8367 0.0000
v  165.3195 251.8367 20.0000
v  165.3195 271.8367 20.0000
v  74.3469 271.8366 20.0000
v  74.3469 251.8367 20.0000
v  202.1490 196.3239 -0.0000
v  202.1490 401.4487 0.0000
v  222.1490 401.4487 0.0000
v  222.1490 196.3239 -0.0000
v  202.1490 196.3239 20.0000
v  222.1490 196.3239 20.0000
v  222.1490 401.4487 20.0000
v  202.1490 401.4487 20.0000
v  215.2637 318.4254 0.0000
v  149.3606 318.4254 0.0000
v  149.3606 338.4254 0.0000
v  215.2637 338.4254 0.0000
v  215.2637 318.4254 20.0000
v  215.2637 338.4254 20.0000
v  149.3606 338.4254 20.0000
v  149.3606 318.4254 20.0000
# 32 vertices

vn 0.0000 0.0000 -1.0000
vn 0.0000 -0.0000 1.0000
vn 0.0000 -1.0000 -0.0000
vn 1.0000 0.0000 -0.0000
vn 0.0000 1.0000 0.0000
vn -1.0000 0.0000 -0.0000
vn -0.0000 -0.0000 -1.0000
vn 1.0000 -0.0000 -0.0000
vn -0.0000 1.0000 -0.0000
vn -0.0000 1.0000 0.0000
vn -1.0000 0.0000 0.0000
vn -1.0000 -0.0000 0.0000
vn 0.0000 -1.0000 0.0000
vn 0.0000 0.0000 1.0000
# 14 vertex normals

vt 1.0000 0.0000 0.0000
vt 1.0000 1.0000 0.0000
vt 0.0000 1.0000 0.0000
vt 0.0000 0.0000 0.0000
# 4 texture coords

o Box004
g Box004
usemtl wire_138008110
s 2
f 113/9/28 114/10/28 115/11/28 
f 115/11/28 116/12/28 113/9/28 
s 4
f 117/12/29 118/9/29 119/10/29 
f 119/10/29 120/11/29 117/12/29 
s 8
f 113/12/30 116/9/30 118/10/30 
f 118/10/30 117/11/30 113/12/30 
s 16
f 116/12/31 115/9/31 119/10/31 
f 119/10/31 118/11/31 116/12/31 
s 32
f 115/12/32 114/9/32 120/10/32 
f 120/10/32 119/11/32 115/12/32 
s 64
f 114/12/33 113/9/33 117/10/33 
f 117/10/33 120/11/33 114/12/33 
s 2
f 121/9/34 122/10/34 123/11/34 
f 123/11/34 124/12/34 121/9/34 
s 4
f 125/12/29 126/9/29 127/10/29 
f 127/10/29 128/11/29 125/12/29 
s 8
f 121/12/35 124/9/35 126/10/35 
f 126/10/35 125/11/31 121/12/35 
s 16
f 124/12/36 123/9/37 127/10/37 
f 127/10/37 126/11/36 124/12/36 
s 32
f 123/12/38 122/9/38 128/10/38 
f 128/10/38 127/11/39 123/12/38 
s 64
f 122/12/40 121/9/40 125/10/40 
f 125/10/40 128/11/40 122/12/40 
s 2
f 129/9/28 130/10/28 131/11/28 
f 131/11/28 132/12/28 129/9/28 
s 4
f 133/12/29 134/9/29 135/10/29 
f 135/10/29 136/11/29 133/12/29 
s 8
f 129/12/30 132/9/30 134/10/30 
f 134/10/30 133/11/30 129/12/30 
s 16
f 132/12/31 131/9/31 135/10/31 
f 135/10/31 134/11/31 132/12/31 
s 32
f 131/12/32 130/9/32 136/10/32 
f 136/10/32 135/11/32 131/12/32 
s 64
f 130/12/33 129/9/33 133/10/33 
f 133/10/33 136/11/33 130/12/33 
s 2
f 137/9/34 138/10/34 139/11/34 
f 139/11/34 140/12/34 137/9/34 
s 4
f 141/12/41 142/9/41 143/10/41 
f 143/10/41 144/11/41 141/12/41 
s 8
f 137/12/31 140/9/31 142/10/31 
f 142/10/31 141/11/31 137/12/31 
s 16
f 140/12/37 139/9/37 143/10/37 
f 143/10/37 142/11/37 140/12/37 
s 32
f 139/12/33 138/9/33 144/10/33 
f 144/10/33 143/11/33 139/12/33 
s 64
f 138/12/30 137/9/30 141/10/30 
f 141/10/30 144/11/30 138/12/30 
# 48 faces

#
# object Box008
#

v  -42.2172 140.7326 -0.0000
v  -133.1898 140.7326 0.0000
v  -133.1898 160.7326 0.0000
v  -42.2172 160.7326 -0.0000
v  -42.2172 140.7326 20.0000
v  -42.2172 160.7326 20.0000
v  -133.1898 160.7326 20.0000
v  -133.1898 140.7326 20.0000
v  -42.2172 102.0378 -0.0000
v  -133.1898 102.0377 0.0000
v  -133.1898 122.0377 0.0000
v  -42.2172 122.0377 -0.0000
v  -42.2172 102.0378 20.0000
v  -42.2172 122.0377 20.0000
v  -133.1898 122.0377 20.0000
v  -133.1898 102.0377 20.0000
v  -133.2793 109.7944 0.0000
v  -133.2793 149.2395 0.0000
v  -113.2793 149.2395 0.0000
v  -113.2793 109.7944 0.0000
v  -133.2793 109.7944 20.0000
v  -113.2793 109.7944 20.0000
v  -113.2793 149.2395 20.0000
v  -133.2793 149.2395 20.0000
v  -133.2793 64.2201 0.0000
v  -133.2793 103.6652 0.0000
v  -113.2793 103.6652 0.0000
v  -113.2793 64.2201 0.0000
v  -133.2793 64.2201 20.0000
v  -113.2793 64.2201 20.0000
v  -113.2793 103.6652 20.0000
v  -133.2793 103.6652 20.0000
v  -42.2172 56.4634 -0.0000
v  -133.1898 56.4634 0.0000
v  -133.1898 76.4634 0.0000
v  -42.2172 76.4634 -0.0000
v  -42.2172 56.4634 20.0000
v  -42.2172 76.4634 20.0000
v  -133.1898 76.4634 20.0000
v  -133.1898 56.4634 20.0000
v  -139.4962 22.8763 -0.0000
v  -39.0010 22.8763 0.0000
v  -39.0010 2.8763 0.0000
v  -139.4962 2.8764 -0.0000
v  -139.4962 22.8763 20.0000
v  -139.4962 2.8764 20.0000
v  -39.0010 2.8763 20.0000
v  -39.0010 22.8763 20.0000
v  -101.7095 12.4444 -0.0000
v  -101.7095 49.9776 0.0000
v  -81.7095 49.9776 0.0000
v  -81.7095 12.4444 -0.0000
v  -101.7095 12.4444 20.0000
v  -81.7095 12.4444 20.0000
v  -81.7095 49.9776 20.0000
v  -101.7095 49.9776 20.0000
# 56 vertices

vn -0.0000 0.0000 -1.0000
vn 0.0000 0.0000 1.0000
vn 1.0000 0.0000 -0.0000
vn -0.0000 1.0000 -0.0000
vn -1.0000 -0.0000 0.0000
vn 0.0000 -1.0000 -0.0000
vn 0.0000 0.0000 -1.0000
vn -0.0000 -0.0000 1.0000
vn -0.0000 1.0000 0.0000
vn -0.0000 -1.0000 0.0000
vn 0.0000 1.0000 -0.0000
# 11 vertex normals

vt 1.0000 0.0000 0.0000
vt 1.0000 1.0000 0.0000
vt 0.0000 1.0000 0.0000
vt 0.0000 0.0000 0.0000
# 4 texture coords

o Box008
g Box008
usemtl wire_138008110
s 2
f 145/13/42 146/14/42 147/15/42 
f 147/15/42 148/16/42 145/13/42 
s 4
f 149/16/43 150/13/43 151/14/43 
f 151/14/43 152/15/43 149/16/43 
s 8
f 145/16/44 148/13/44 150/14/44 
f 150/14/44 149/15/44 145/16/44 
s 16
f 148/16/45 147/13/45 151/14/45 
f 151/14/45 150/15/45 148/16/45 
s 32
f 147/16/46 146/13/46 152/14/46 
f 152/14/46 151/15/46 147/16/46 
s 64
f 146/16/47 145/13/47 149/14/47 
f 149/14/47 152/15/47 146/16/47 
s 2
f 153/13/42 154/14/42 155/15/42 
f 155/15/42 156/16/42 153/13/42 
s 4
f 157/16/43 158/13/43 159/14/43 
f 159/14/43 160/15/43 157/16/43 
s 8
f 153/16/44 156/13/44 158/14/44 
f 158/14/44 157/15/44 153/16/44 
s 16
f 156/16/45 155/13/45 159/14/45 
f 159/14/45 158/15/45 156/16/45 
s 32
f 155/16/46 154/13/46 160/14/46 
f 160/14/46 159/15/46 155/16/46 
s 64
f 154/16/47 153/13/47 157/14/47 
f 157/14/47 160/15/47 154/16/47 
s 2
f 161/13/48 162/14/48 163/15/48 
f 163/15/48 164/16/48 161/13/48 
s 4
f 165/16/49 166/13/49 167/14/49 
f 167/14/49 168/15/49 165/16/49 
s 8
f 161/16/47 164/13/47 166/14/47 
f 166/14/47 165/15/47 161/16/47 
s 16
f 164/16/44 163/13/44 167/14/44 
f 167/14/44 166/15/44 164/16/44 
s 32
f 163/16/50 162/13/50 168/14/50 
f 168/14/50 167/15/50 163/16/50 
s 64
f 162/16/46 161/13/46 165/14/46 
f 165/14/46 168/15/46 162/16/46 
s 2
f 169/13/48 170/14/48 171/15/48 
f 171/15/48 172/16/48 169/13/48 
s 4
f 173/16/49 174/13/49 175/14/49 
f 175/14/49 176/15/49 173/16/49 
s 8
f 169/16/47 172/13/47 174/14/47 
f 174/14/47 173/15/47 169/16/47 
s 16
f 172/16/44 171/13/44 175/14/44 
f 175/14/44 174/15/44 172/16/44 
s 32
f 171/16/50 170/13/50 176/14/50 
f 176/14/50 175/15/50 171/16/50 
s 64
f 170/16/46 169/13/46 173/14/46 
f 173/14/46 176/15/46 170/16/46 
s 2
f 177/13/42 178/14/42 179/15/42 
f 179/15/42 180/16/42 177/13/42 
s 4
f 181/16/43 182/13/43 183/14/43 
f 183/14/43 184/15/43 181/16/43 
s 8
f 177/16/44 180/13/44 182/14/44 
f 182/14/44 181/15/44 177/16/44 
s 16
f 180/16/45 179/13/45 183/14/45 
f 183/14/45 182/15/45 180/16/45 
s 32
f 179/16/46 178/13/46 184/14/46 
f 184/14/46 183/15/46 179/16/46 
s 64
f 178/16/47 177/13/47 181/14/47 
f 181/14/47 184/15/47 178/16/47 
s 2
f 185/13/48 186/14/48 187/15/48 
f 187/15/48 188/16/48 185/13/48 
s 4
f 189/16/49 190/13/49 191/14/49 
f 191/14/49 192/15/49 189/16/49 
s 8
f 185/16/46 188/13/46 190/14/46 
f 190/14/46 189/15/46 185/16/46 
s 16
f 188/16/51 187/13/51 191/14/51 
f 191/14/51 190/15/51 188/16/51 
s 32
f 187/16/44 186/13/44 192/14/44 
f 192/14/44 191/15/44 187/16/44 
s 64
f 186/16/52 185/13/52 189/14/52 
f 189/14/52 192/15/52 186/16/52 
s 2
f 193/13/48 194/14/48 195/15/48 
f 195/15/48 196/16/48 193/13/48 
s 4
f 197/16/49 198/13/49 199/14/49 
f 199/14/49 200/15/49 197/16/49 
s 8
f 193/16/47 196/13/47 198/14/47 
f 198/14/47 197/15/47 193/16/47 
s 16
f 196/16/44 195/13/44 199/14/44 
f 199/14/44 198/15/44 196/16/44 
s 32
f 195/16/52 194/13/52 200/14/52 
f 200/14/52 199/15/52 195/16/52 
s 64
f 194/16/46 193/13/46 197/14/46 
f 197/14/46 200/15/46 194/16/46 
# 84 faces

#
# object Box015
#

v  50.4121 140.7326 -0.0000
v  -9.8569 140.7326 0.0000
v  -9.8569 160.7326 0.0000
v  50.4121 160.7326 -0.0000
v  50.4121 140.7326 20.0000
v  50.4121 160.7326 20.0000
v  -9.8569 160.7326 20.0000
v  -9.8569 140.7326 20.0000
v  49.6000 141.1825 -0.0000
v  26.0546 23.6714 0.0000
v  6.7361 30.5937 0.0000
v  30.2815 148.1048 -0.0000
v  49.6000 141.1825 20.0000
v  30.2815 148.1048 20.0000
v  6.7361 30.5937 20.0000
v  26.0546 23.6714 20.0000
v  114.0130 140.7326 -0.0000
v  51.8471 140.7326 0.0000
v  51.8471 160.7326 0.0000
v  114.0130 160.7326 -0.0000
v  114.0130 140.7326 20.0000
v  114.0130 160.7326 20.0000
v  51.8471 160.7326 20.0000
v  51.8471 140.7326 20.0000
v  112.1122 141.1825 -0.0000
v  88.5669 23.6714 0.0000
v  69.2483 30.5937 0.0000
v  92.7937 148.1048 -0.0000
v  112.1122 141.1825 20.0000
v  92.7937 148.1048 20.0000
v  69.2483 30.5938 20.0000
v  88.5669 23.6715 20.0000
v  124.2231 4.6311 -0.0000
v  124.2231 159.8281 0.0000
v  144.2231 159.8281 0.0000
v  144.2231 4.6311 -0.0000
v  124.2231 4.6311 20.0000
v  144.2231 4.6311 20.0000
v  144.2231 159.8281 20.0000
v  124.2231 159.8281 20.0000
# 40 vertices

vn -0.0000 0.0000 -1.0000
vn 0.0000 0.0000 1.0000
vn 1.0000 0.0000 -0.0000
vn -0.0000 1.0000 -0.0000
vn -1.0000 -0.0000 0.0000
vn 0.0000 -1.0000 -0.0000
vn 0.0000 -0.0000 -1.0000
vn -0.0000 0.0000 1.0000
vn 0.2111 0.9775 -0.0000
vn -0.9489 0.3155 0.0000
vn -0.2111 -0.9775 0.0000
vn 0.9489 -0.3155 -0.0000
vn 0.0000 0.0000 -1.0000
vn -0.0000 -0.0000 1.0000
# 14 vertex normals

vt 1.0000 0.0000 0.0000
vt 1.0000 1.0000 0.0000
vt 0.0000 1.0000 0.0000
vt 0.0000 0.0000 0.0000
# 4 texture coords

o Box015
g Box015
usemtl wire_138008110
s 2
f 201/17/53 202/18/53 203/19/53 
f 203/19/53 204/20/53 201/17/53 
s 4
f 205/20/54 206/17/54 207/18/54 
f 207/18/54 208/19/54 205/20/54 
s 8
f 201/20/55 204/17/55 206/18/55 
f 206/18/55 205/19/55 201/20/55 
s 16
f 204/20/56 203/17/56 207/18/56 
f 207/18/56 206/19/56 204/20/56 
s 32
f 203/20/57 202/17/57 208/18/57 
f 208/18/57 207/19/57 203/20/57 
s 64
f 202/20/58 201/17/58 205/18/58 
f 205/18/58 208/19/58 202/20/58 
s 2
f 209/17/59 210/18/59 211/19/59 
f 211/19/59 212/20/59 209/17/59 
s 4
f 213/20/60 214/17/60 215/18/60 
f 215/18/60 216/19/60 213/20/60 
s 8
f 209/20/61 212/17/61 214/18/61 
f 214/18/61 213/19/61 209/20/61 
s 16
f 212/20/62 211/17/62 215/18/62 
f 215/18/62 214/19/62 212/20/62 
s 32
f 211/20/63 210/17/63 216/18/63 
f 216/18/63 215/19/63 211/20/63 
s 64
f 210/20/64 209/17/64 213/18/64 
f 213/18/64 216/19/64 210/20/64 
s 2
f 217/17/53 218/18/53 219/19/53 
f 219/19/53 220/20/53 217/17/53 
s 4
f 221/20/54 222/17/54 223/18/54 
f 223/18/54 224/19/54 221/20/54 
s 8
f 217/20/55 220/17/55 222/18/55 
f 222/18/55 221/19/55 217/20/55 
s 16
f 220/20/56 219/17/56 223/18/56 
f 223/18/56 222/19/56 220/20/56 
s 32
f 219/20/57 218/17/57 224/18/57 
f 224/18/57 223/19/57 219/20/57 
s 64
f 218/20/58 217/17/58 221/18/58 
f 221/18/58 224/19/58 218/20/58 
s 2
f 225/17/59 226/18/59 227/19/59 
f 227/19/59 228/20/59 225/17/59 
s 4
f 229/20/60 230/17/60 231/18/60 
f 231/18/60 232/19/60 229/20/60 
s 8
f 225/20/61 228/17/61 230/18/61 
f 230/18/61 229/19/61 225/20/61 
s 16
f 228/20/62 227/17/62 231/18/62 
f 231/18/62 230/19/62 228/20/62 
s 32
f 227/20/63 226/17/63 232/18/63 
f 232/18/63 231/19/63 227/20/63 
s 64
f 226/20/64 225/17/64 229/18/64 
f 229/18/64 232/19/64 226/20/64 
s 2
f 233/17/65 234/18/65 235/19/65 
f 235/19/65 236/20/65 233/17/65 
s 4
f 237/20/66 238/17/66 239/18/66 
f 239/18/66 240/19/66 237/20/66 
s 8
f 233/20/58 236/17/58 238/18/58 
f 238/18/58 237/19/58 233/20/58 
s 16
f 236/20/55 235/17/55 239/18/55 
f 239/18/55 238/19/55 236/20/55 
s 32
f 235/20/56 234/17/56 240/18/56 
f 240/18/56 239/19/56 235/20/56 
s 64
f 234/20/57 233/17/57 237/18/57 
f 237/18/57 240/19/57 234/20/57 
# 60 faces

