# 3ds Max Wavefront OBJ Exporter v0.97b - (c)2007 guruware
# File Created: 04.12.2019 19:39:23

#
# object Box001
#

v  -25.0000 8.9436 40.0000
v  -25.0000 8.9436 -40.0000
v  25.0000 8.9436 -40.0000
v  25.0000 8.9436 40.0000
v  -25.0000 53.9436 40.0000
v  25.0000 53.9436 40.0000
v  25.0000 53.9436 -40.0000
v  -25.0000 53.9436 -40.0000
# 8 vertices

vn 0.0000 -1.0000 -0.0000
vn 0.0000 1.0000 -0.0000
vn 0.0000 0.0000 1.0000
vn 1.0000 0.0000 -0.0000
vn 0.0000 0.0000 -1.0000
vn -1.0000 0.0000 -0.0000
# 6 vertex normals

vt 1.0000 1.0000 0.8000
vt 1.0000 1.0000 0.8000
vt 1.0000 1.0000 0.8000
vt 1.0000 1.0000 0.8000
# 4 texture coords

o Box001
g Box001
f 1/1/1 2/2/1 3/3/1 
f 3/3/1 4/4/1 1/1/1 
f 5/4/2 6/1/2 7/2/2 
f 7/2/2 8/3/2 5/4/2 
f 1/4/3 4/1/3 6/2/3 
f 6/2/3 5/3/3 1/4/3 
f 4/4/4 3/1/4 7/2/4 
f 7/2/4 6/3/4 4/4/4 
f 3/4/5 2/1/5 8/2/5 
f 8/2/5 7/3/5 3/4/5 
f 2/4/6 1/1/6 5/2/6 
f 5/2/6 8/3/6 2/4/6 
# 12 faces

#
# object Box002
#

v  -17.0088 8.9436 65.8358
v  -17.0088 8.9436 34.1642
v  17.0088 8.9436 34.1642
v  17.0088 8.9436 65.8358
v  -17.0088 34.6644 65.8358
v  17.0088 34.6644 65.8358
v  17.0088 42.3747 34.1642
v  -17.0088 42.3747 34.1642
# 8 vertices

vn 0.0000 -1.0000 -0.0000
vn 0.0000 0.9716 0.2365
vn 0.0000 0.0000 1.0000
vn 1.0000 0.0000 -0.0000
vn 0.0000 0.0000 -1.0000
vn -1.0000 0.0000 -0.0000
# 6 vertex normals

vt 1.0000 0.5000 0.5000
vt 1.0000 0.5000 0.5000
vt 1.0000 0.5000 0.5000
vt 1.0000 0.5000 0.5000
# 4 texture coords

o Box002
g Box002
f 9/5/7 10/6/7 11/7/7 
f 11/7/7 12/8/7 9/5/7 
f 13/8/8 14/5/8 15/6/8 
f 15/6/8 16/7/8 13/8/8 
f 9/8/9 12/5/9 14/6/9 
f 14/6/9 13/7/9 9/8/9 
f 12/8/10 11/5/10 15/6/10 
f 15/6/10 14/7/10 12/8/10 
f 11/8/11 10/5/11 16/6/11 
f 16/6/11 15/7/11 11/8/11 
f 10/8/12 9/5/12 13/6/12 
f 13/6/12 16/7/12 10/8/12 
# 12 faces

#
# object Box003
#

v  -9.9707 33.9436 52.9179
v  -9.9707 33.9436 37.0821
v  9.9707 33.9436 37.0821
v  9.9707 33.9436 52.9179
v  -9.9707 45.6738 52.9179
v  9.9707 45.6738 52.9179
v  9.9707 45.6738 37.0821
v  -9.9707 45.6738 37.0821
# 8 vertices

vn 0.0000 -1.0000 -0.0000
vn 0.0000 1.0000 -0.0000
vn 0.0000 0.0000 1.0000
vn 1.0000 0.0000 -0.0000
vn 0.0000 0.0000 -1.0000
vn -1.0000 0.0000 -0.0000
# 6 vertex normals

vt 1.0000 0.9000 0.8000
vt 1.0000 0.9000 0.8000
vt 1.0000 0.9000 0.8000
vt 1.0000 0.9000 0.8000
# 4 texture coords

o Box003
g Box003
f 17/9/13 18/10/13 19/11/13 
f 19/11/13 20/12/13 17/9/13 
f 21/12/14 22/9/14 23/10/14 
f 23/10/14 24/11/14 21/12/14 
f 17/12/15 20/9/15 22/10/15 
f 22/10/15 21/11/15 17/12/15 
f 20/12/16 19/9/16 23/10/16 
f 23/10/16 22/11/16 20/12/16 
f 19/12/17 18/9/17 24/10/17 
f 24/10/17 23/11/17 19/12/17 
f 18/12/18 17/9/18 21/10/18 
f 21/10/18 24/11/18 18/12/18 
# 12 faces

#
# object Box004
#

v  -11.6398 31.9363 66.9830
v  -11.6398 20.8089 66.9830
v  11.6398 31.9363 66.9830
v  11.6398 20.8089 66.9830
v  11.6398 20.8089 62.2978
v  -11.6398 20.8089 62.2978
v  11.6398 31.9363 62.2978
v  -11.6398 31.9363 62.2978
# 8 vertices

vn 0.0000 -0.0000 1.0000
vn 0.0000 0.0000 -1.0000
vn 0.0000 -1.0000 -0.0000
vn 1.0000 0.0000 -0.0000
vn 0.0000 1.0000 0.0000
vn -1.0000 0.0000 -0.0000
# 6 vertex normals

vt 0.0000 0.0000 0.1000
vt 0.0000 0.0000 0.1000
vt 0.0000 0.0000 0.1000
vt 0.0000 0.0000 0.1000
# 4 texture coords

o Box004
g Box004
f 25/13/19 26/14/19 27/15/19 
f 28/16/19 27/15/19 26/14/19 
f 29/14/20 30/16/20 31/13/20 
f 32/15/20 31/13/20 30/16/20 
f 28/16/21 26/14/21 29/15/21 
f 30/13/21 29/15/21 26/14/21 
f 27/16/22 28/14/22 31/15/22 
f 29/13/22 31/15/22 28/14/22 
f 25/16/23 27/14/23 32/15/23 
f 31/13/23 32/15/23 27/14/23 
f 26/16/24 25/14/24 30/15/24 
f 32/13/24 30/15/24 25/14/24 
# 12 faces

#
# object Cylinder003
#

v  -20.0000 15.9436 30.0000
v  -20.0000 13.6004 24.3431
v  -20.0000 7.9436 22.0000
v  -20.0000 2.2867 24.3431
v  -20.0000 -0.0564 30.0000
v  -20.0000 2.2867 35.6569
v  -20.0000 7.9436 38.0000
v  -20.0000 13.6004 35.6569
v  -12.0000 2.2867 35.6569
v  -12.0000 7.9436 38.0000
v  -12.0000 -0.0564 30.0000
v  -12.0000 2.2867 24.3431
v  -12.0000 7.9436 22.0000
v  -12.0000 13.6004 24.3431
v  -12.0000 15.9436 30.0000
v  -12.0000 13.6004 35.6569
v  -20.0000 15.9436 -25.0000
v  -20.0000 13.6004 -30.6569
v  -20.0000 7.9436 -33.0000
v  -20.0000 2.2867 -30.6569
v  -20.0000 -0.0564 -25.0000
v  -20.0000 2.2867 -19.3431
v  -20.0000 7.9436 -17.0000
v  -20.0000 13.6004 -19.3431
v  -12.0000 2.2867 -19.3431
v  -12.0000 7.9436 -17.0000
v  -12.0000 -0.0564 -25.0000
v  -12.0000 2.2867 -30.6569
v  -12.0000 7.9436 -33.0000
v  -12.0000 13.6004 -30.6569
v  -12.0000 15.9436 -25.0000
v  -12.0000 13.6004 -19.3431
v  12.0000 15.9436 30.0000
v  12.0000 13.6004 24.3431
v  12.0000 7.9436 22.0000
v  12.0000 2.2867 24.3431
v  12.0000 -0.0564 30.0000
v  12.0000 2.2867 35.6569
v  12.0000 7.9436 38.0000
v  12.0000 13.6004 35.6569
v  20.0000 2.2867 35.6569
v  20.0000 7.9436 38.0000
v  20.0000 -0.0564 30.0000
v  20.0000 2.2867 24.3431
v  20.0000 7.9436 22.0000
v  20.0000 13.6004 24.3431
v  20.0000 15.9436 30.0000
v  20.0000 13.6004 35.6569
v  12.0000 15.9436 -25.0000
v  12.0000 13.6004 -30.6569
v  12.0000 7.9436 -33.0000
v  12.0000 2.2867 -30.6569
v  12.0000 -0.0564 -25.0000
v  12.0000 2.2867 -19.3432
v  12.0000 7.9436 -17.0000
v  12.0000 13.6004 -19.3432
v  20.0000 2.2867 -19.3431
v  20.0000 7.9436 -17.0000
v  20.0000 -0.0564 -25.0000
v  20.0000 2.2867 -30.6569
v  20.0000 7.9436 -33.0000
v  20.0000 13.6004 -30.6569
v  20.0000 15.9436 -25.0000
v  20.0000 13.6004 -19.3431
# 64 vertices

vn -1.0000 -0.0000 -0.0000
vn -0.0000 0.0000 1.0000
vn -0.0000 -0.7071 0.7071
vn 0.0000 -1.0000 -0.0000
vn 0.0000 -0.7071 -0.7071
vn 0.0000 0.0000 -1.0000
vn 0.0000 0.7071 -0.7071
vn -0.0000 1.0000 -0.0000
vn -0.0000 1.0000 0.0000
vn -0.0000 0.7071 0.7071
vn 1.0000 0.0000 0.0000
vn -0.0000 -0.0000 1.0000
vn 0.0000 -1.0000 0.0000
# 13 vertex normals

vt 0.0000 0.0000 0.1000
vt 0.0000 0.0000 0.1000
vt 0.0000 0.0000 0.1000
vt 0.0000 0.0000 0.1000
vt 0.0000 0.0000 0.1000
vt 0.0000 0.0000 0.1000
vt 0.0000 0.0000 0.1000
vt 0.0000 0.0000 0.1000
vt 0.0000 0.0000 0.1000
vt 0.0000 0.0000 0.1000
vt 0.0000 0.0000 0.1000
vt 0.0000 0.0000 0.1000
vt 0.0000 0.0000 0.1000
vt 0.0000 0.0000 0.1000
vt 0.0000 0.0000 0.1000
vt 0.0000 0.0000 0.1000
vt 0.0000 0.0000 0.1000
vt 0.0000 0.0000 0.1000
# 18 texture coords

o Cylinder003
g Cylinder003
f 33/17/25 34/18/25 35/19/25 
f 35/19/25 36/20/25 37/21/25 
f 37/21/25 38/22/25 39/23/25 
f 35/19/25 37/21/25 39/23/25 
f 33/17/25 35/19/25 39/23/25 
f 40/24/25 33/17/25 39/23/25 
f 39/23/26 38/22/27 41/25/27 
f 41/25/27 42/26/26 39/23/26 
f 38/22/27 37/21/28 43/27/28 
f 43/27/28 41/25/27 38/22/27 
f 37/21/28 36/20/29 44/28/29 
f 44/28/29 43/27/28 37/21/28 
f 36/20/29 35/19/30 45/29/30 
f 45/29/30 44/28/29 36/20/29 
f 35/19/30 34/18/31 46/30/31 
f 46/30/31 45/29/30 35/19/30 
f 34/18/31 33/17/32 47/31/33 
f 47/31/33 46/30/31 34/18/31 
f 33/17/32 40/24/34 48/32/34 
f 48/32/34 47/31/33 33/17/32 
f 40/33/34 39/23/26 42/26/26 
f 42/26/26 48/34/34 40/33/34 
f 42/26/35 41/25/35 43/27/35 
f 43/27/35 44/28/35 45/29/35 
f 45/29/35 46/30/35 47/31/35 
f 43/27/35 45/29/35 47/31/35 
f 42/26/35 43/27/35 47/31/35 
f 48/34/35 42/26/35 47/31/35 
f 49/17/25 50/18/25 51/19/25 
f 51/19/25 52/20/25 53/21/25 
f 53/21/25 54/22/25 55/23/25 
f 51/19/25 53/21/25 55/23/25 
f 49/17/25 51/19/25 55/23/25 
f 56/24/25 49/17/25 55/23/25 
f 55/23/36 54/22/27 57/25/27 
f 57/25/27 58/26/36 55/23/36 
f 54/22/27 53/21/28 59/27/37 
f 59/27/37 57/25/27 54/22/27 
f 53/21/28 52/20/29 60/28/29 
f 60/28/29 59/27/37 53/21/28 
f 52/20/29 51/19/30 61/29/30 
f 61/29/30 60/28/29 52/20/29 
f 51/19/30 50/18/31 62/30/31 
f 62/30/31 61/29/30 51/19/30 
f 50/18/31 49/17/32 63/31/32 
f 63/31/32 62/30/31 50/18/31 
f 49/17/32 56/24/34 64/32/34 
f 64/32/34 63/31/32 49/17/32 
f 56/33/34 55/23/36 58/26/36 
f 58/26/36 64/34/34 56/33/34 
f 58/26/35 57/25/35 59/27/35 
f 59/27/35 60/28/35 61/29/35 
f 61/29/35 62/30/35 63/31/35 
f 59/27/35 61/29/35 63/31/35 
f 58/26/35 59/27/35 63/31/35 
f 64/34/35 58/26/35 63/31/35 
f 65/17/25 66/18/25 67/19/25 
f 67/19/25 68/20/25 69/21/25 
f 69/21/25 70/22/25 71/23/25 
f 67/19/25 69/21/25 71/23/25 
f 65/17/25 67/19/25 71/23/25 
f 72/24/25 65/17/25 71/23/25 
f 71/23/26 70/22/27 73/25/27 
f 73/25/27 74/26/26 71/23/26 
f 70/22/27 69/21/28 75/27/37 
f 75/27/37 73/25/27 70/22/27 
f 69/21/28 68/20/29 76/28/29 
f 76/28/29 75/27/37 69/21/28 
f 68/20/29 67/19/30 77/29/30 
f 77/29/30 76/28/29 68/20/29 
f 67/19/30 66/18/31 78/30/31 
f 78/30/31 77/29/30 67/19/30 
f 66/18/31 65/17/32 79/31/33 
f 79/31/33 78/30/31 66/18/31 
f 65/17/32 72/24/34 80/32/34 
f 80/32/34 79/31/33 65/17/32 
f 72/33/34 71/23/26 74/26/26 
f 74/26/26 80/34/34 72/33/34 
f 74/26/35 73/25/35 75/27/35 
f 75/27/35 76/28/35 77/29/35 
f 77/29/35 78/30/35 79/31/35 
f 75/27/35 77/29/35 79/31/35 
f 74/26/35 75/27/35 79/31/35 
f 80/34/35 74/26/35 79/31/35 
f 81/17/25 82/18/25 83/19/25 
f 83/19/25 84/20/25 85/21/25 
f 85/21/25 86/22/25 87/23/25 
f 83/19/25 85/21/25 87/23/25 
f 81/17/25 83/19/25 87/23/25 
f 88/24/25 81/17/25 87/23/25 
f 87/23/36 86/22/27 89/25/27 
f 89/25/27 90/26/36 87/23/36 
f 86/22/27 85/21/28 91/27/37 
f 91/27/37 89/25/27 86/22/27 
f 85/21/28 84/20/29 92/28/29 
f 92/28/29 91/27/37 85/21/28 
f 84/20/29 83/19/30 93/29/30 
f 93/29/30 92/28/29 84/20/29 
f 83/19/30 82/18/31 94/30/31 
f 94/30/31 93/29/30 83/19/30 
f 82/18/31 81/17/33 95/31/32 
f 95/31/32 94/30/31 82/18/31 
f 81/17/33 88/24/34 96/32/34 
f 96/32/34 95/31/32 81/17/33 
f 88/33/34 87/23/36 90/26/36 
f 90/26/36 96/34/34 88/33/34 
f 90/26/35 89/25/35 91/27/35 
f 91/27/35 92/28/35 93/29/35 
f 93/29/35 94/30/35 95/31/35 
f 91/27/35 93/29/35 95/31/35 
f 90/26/35 91/27/35 95/31/35 
f 96/34/35 90/26/35 95/31/35 
# 112 faces

