# 3ds Max Wavefront OBJ Exporter v0.97b - (c)2007 guruware
# File Created: 03.12.2019 01:38:16

#
# object Cylinder001
#

v  0.0000 -5.0000 -50.0000
v  16.1803 6.7557 -50.0000
v  20.0000 -5.0000 -50.0000
v  6.1803 14.0211 -50.0000
v  -6.1803 14.0211 -50.0000
v  -16.1803 6.7557 -50.0000
v  -20.0000 -5.0000 -50.0000
v  16.1803 6.7557 50.0000
v  20.0000 -5.0000 50.0000
v  6.1803 14.0211 50.0000
v  -6.1803 14.0211 50.0000
v  -16.1803 6.7557 50.0000
v  -20.0000 -5.0000 50.0000
v  0.0000 -5.0000 50.0000
# 14 vertices

vn 0.0000 0.0000 -1.0000
vn 1.0000 0.0000 -0.0000
vn 0.8090 0.5878 -0.0000
vn 0.3090 0.9511 -0.0000
vn -0.3090 0.9511 -0.0000
vn -0.8090 0.5878 -0.0000
vn -1.0000 0.0000 -0.0000
vn 0.0000 0.0000 1.0000
# 8 vertex normals

vt 0.6000 0.5000 0.3000
# 1 texture coords

o Cylinder001
g Cylinder001
f 1/1/1 2/1/1 3/1/1 
f 1/1/1 4/1/1 2/1/1 
f 1/1/1 5/1/1 4/1/1 
f 1/1/1 6/1/1 5/1/1 
f 1/1/1 7/1/1 6/1/1 
f 3/1/2 8/1/3 9/1/2 
f 3/1/2 2/1/3 8/1/3 
f 2/1/3 10/1/4 8/1/3 
f 2/1/3 4/1/4 10/1/4 
f 4/1/4 11/1/5 10/1/4 
f 4/1/4 5/1/5 11/1/5 
f 5/1/5 12/1/6 11/1/5 
f 5/1/5 6/1/6 12/1/6 
f 6/1/6 13/1/7 12/1/6 
f 6/1/6 7/1/7 13/1/7 
f 14/1/8 9/1/8 8/1/8 
f 14/1/8 8/1/8 10/1/8 
f 14/1/8 10/1/8 11/1/8 
f 14/1/8 11/1/8 12/1/8 
f 14/1/8 12/1/8 13/1/8 
# 20 faces

