# 3ds Max Wavefront OBJ Exporter v0.97b - (c)2007 guruware
# File Created: 04.12.2019 21:01:38

#
# object Box001
#

v  -13.1593 5.0243 13.1593
v  -9.6165 8.1734 19.2330
v  -16.2031 9.5200 14.9274
v  -19.2330 8.1734 9.6165
v  0.0000 3.2397 16.0374
v  0.0000 7.4626 20.8323
v  13.1593 5.0243 13.1593
v  9.6165 8.1734 19.2330
v  19.2330 8.1734 9.6165
v  16.2031 9.5200 14.9274
v  -14.8620 2.4660 -0.0000
v  -19.3054 7.4626 -0.0000
v  0.0000 -0.0928 -0.0000
v  14.8620 2.4660 -0.0000
v  19.3054 7.4626 -0.0000
v  -13.1593 5.0243 -13.1593
v  -19.2330 8.1734 -9.6165
v  0.0000 2.4660 -11.7132
v  13.1593 5.0243 -13.1593
v  19.2330 8.1734 -9.6165
v  -9.6165 8.1734 -17.9038
v  -16.2031 9.5200 -14.5846
v  0.0000 7.4626 -20.8323
v  9.6165 8.1734 -19.2330
v  16.2031 9.5200 -14.5846
v  -10.0897 28.6607 4.5486
v  -15.9129 25.5627 3.7082
v  -13.4060 24.2160 8.6474
v  -7.9564 25.5627 11.6773
v  -0.0000 30.9643 5.9309
v  -0.0000 26.2735 13.2765
v  10.0897 29.4213 4.5486
v  7.9564 25.5627 11.6773
v  15.9129 25.5627 3.7082
v  13.4060 24.2160 8.6474
v  -11.3952 29.7724 -0.0000
v  -15.9728 25.9802 -0.0000
v  -0.0000 32.2258 -0.0000
v  11.3952 30.3663 -0.0000
v  15.9728 25.9802 -0.0000
v  -10.0897 28.4186 -9.5719
v  -15.9129 25.2694 -9.6165
v  -0.0000 29.7668 -9.6555
v  10.0897 28.4186 -9.9157
v  15.9129 25.2694 -9.6165
v  -7.9564 25.2694 -15.9359
v  -12.2522 23.9228 -14.5846
v  -0.0000 25.9802 -17.5339
v  7.9564 25.2694 -15.9359
v  12.2522 23.9228 -14.5846
v  -10.0626 12.2492 20.1251
v  -16.6667 13.0177 14.0102
v  0.0000 11.8238 22.0392
v  10.0626 12.2492 20.1251
v  16.6667 13.0177 14.0102
v  -10.2286 17.0147 16.0583
v  -16.8325 17.0147 11.6812
v  -0.0000 17.0147 18.1012
v  10.2286 17.0147 16.0583
v  16.8325 17.0147 11.6812
v  -9.0967 21.4869 12.5694
v  -15.0669 20.7184 9.1109
v  -0.0000 21.9123 14.4835
v  9.0967 21.4869 12.5694
v  15.0669 20.7184 9.1109
v  20.1251 12.2492 7.9657
v  20.4239 11.8238 -0.0000
v  20.1251 12.2492 -10.0626
v  16.6667 13.0177 -15.0482
v  20.4572 17.0147 5.8298
v  20.8509 16.7214 -0.0000
v  20.4572 16.7214 -10.2286
v  16.8325 16.7214 -15.2140
v  18.1934 21.4869 4.2573
v  18.4635 21.6190 -0.0000
v  18.1934 21.1937 -10.0626
v  15.0669 20.4251 -15.0482
v  10.0626 12.2492 -19.0880
v  0.0000 11.8238 -22.0392
v  -10.0626 12.2492 -19.0880
v  -16.6667 13.0177 -15.0482
v  10.2286 16.7214 -19.4201
v  0.0000 16.7214 -22.5000
v  -10.2286 16.7214 -19.4201
v  -16.8325 16.7214 -15.2140
v  9.0967 21.1937 -19.0880
v  -0.0000 21.6190 -21.1458
v  -9.0967 21.1937 -19.0880
v  -15.0669 20.4251 -15.0482
v  -20.1251 12.2492 -10.0626
v  -20.4239 11.8238 -0.0000
v  -20.1251 12.2492 7.9657
v  -20.4572 16.7214 -10.2286
v  -20.8509 16.7214 -0.0000
v  -20.4572 17.0147 5.8298
v  -18.1934 21.1937 -10.0626
v  -18.4635 21.6190 -0.0000
v  -18.1934 21.4869 4.2573
v  2.4080 26.1892 -2.8227
v  2.4080 26.1892 -7.1773
v  7.5920 26.1892 -7.1773
v  7.5920 26.1892 -2.8227
v  2.4080 38.4236 -2.8227
v  7.5920 38.4236 -2.8227
v  7.5920 38.4236 -7.1773
v  2.4080 38.4236 -7.1773
v  -7.5920 26.1892 -2.8227
v  -7.5920 26.1892 -7.1773
v  -2.4080 26.1892 -7.1773
v  -2.4080 26.1892 -2.8227
v  -7.5920 38.4236 -2.8227
v  -2.4080 38.4236 -2.8227
v  -2.4080 38.4236 -7.1773
v  -7.5920 38.4236 -7.1773
v  -2.5000 12.0000 -19.5000
v  -2.5000 12.0000 -24.5000
v  2.5000 12.0000 -24.5000
v  2.5000 12.0000 -19.5000
v  -2.5000 17.0000 -19.5000
v  2.5000 17.0000 -19.5000
v  2.5000 17.0000 -24.5000
v  -2.5000 17.0000 -24.5000
# 122 vertices

vn -0.4034 -0.8177 0.4106
vn -0.2947 -0.7473 0.5956
vn -0.5718 -0.6050 0.5540
vn -0.6197 -0.7347 0.2761
vn 0.0137 -0.8899 0.4560
vn 0.0260 -0.7657 0.6426
vn 0.4383 -0.7908 0.4272
vn 0.2620 -0.7959 0.5458
vn 0.5263 -0.8224 0.2159
vn 0.4532 -0.7676 0.4532
vn -0.4686 -0.8830 -0.0262
vn -0.7122 -0.6993 -0.0621
vn -0.0012 -1.0000 -0.0037
vn 0.4697 -0.8825 0.0249
vn 0.7122 -0.6993 0.0621
vn -0.4411 -0.7557 -0.4842
vn -0.5210 -0.8212 -0.2327
vn 0.0026 -0.9407 -0.3393
vn 0.3881 -0.8152 -0.4299
vn 0.6223 -0.7292 -0.2845
vn -0.3324 -0.6741 -0.6596
vn -0.3931 -0.7984 -0.4561
vn 0.0022 -0.8632 -0.5048
vn 0.2367 -0.8083 -0.5390
vn 0.5860 -0.5771 -0.5689
vn -0.3516 0.8578 0.3749
vn -0.5361 0.7872 0.3046
vn -0.4577 0.7628 0.4568
vn -0.2989 0.8236 0.4820
vn -0.0247 0.9256 0.3777
vn 0.0048 0.8455 0.5339
vn 0.3822 0.8373 0.3909
vn 0.2901 0.8094 0.5106
vn 0.5442 0.7922 0.2760
vn 0.4369 0.7866 0.4362
vn -0.4172 0.9080 0.0377
vn -0.6087 0.7930 -0.0245
vn -0.0358 0.9993 -0.0095
vn 0.4413 0.8952 0.0618
vn 0.6514 0.7557 0.0676
vn -0.3164 0.8954 -0.3134
vn -0.4560 0.8499 -0.2641
vn -0.0097 0.9419 -0.3357
vn 0.2958 0.8788 -0.3745
vn 0.5116 0.7981 -0.3183
vn -0.2604 0.8286 -0.4956
vn -0.3985 0.7678 -0.5017
vn 0.0116 0.8959 -0.4441
vn 0.2331 0.8380 -0.4935
vn 0.4132 0.7440 -0.5251
vn -0.3915 0.2055 0.8969
vn -0.5846 0.3351 0.7389
vn -0.6508 0.0186 0.7590
vn -0.3674 -0.2418 0.8981
vn 0.0079 0.1748 0.9846
vn 0.0052 -0.2625 0.9649
vn 0.4060 0.1835 0.8953
vn 0.4068 -0.1959 0.8923
vn 0.6070 0.2509 0.7541
vn 0.5189 0.1518 0.8413
vn -0.3442 0.5964 0.7252
vn -0.4708 0.5425 0.6957
vn 0.0110 0.6073 0.7944
vn 0.3105 0.6182 0.7221
vn 0.4813 0.5660 0.6693
vn -0.3557 0.4818 0.8009
vn -0.4795 0.5280 0.7009
vn 0.0072 0.4483 0.8939
vn 0.3559 0.4772 0.8035
vn 0.4687 0.5238 0.7113
vn -0.3356 0.2941 0.8949
vn -0.5198 0.3501 0.7793
vn 0.0008 0.2674 0.9636
vn 0.3387 0.2898 0.8952
vn 0.5088 0.3358 0.7927
vn 0.9606 -0.0245 0.2769
vn 0.8621 0.0967 0.4975
vn 0.8690 0.0129 0.4946
vn 0.9449 -0.0860 0.3158
vn 0.9861 -0.1660 -0.0008
vn 0.9697 -0.2444 -0.0048
vn 0.9331 -0.1599 -0.3221
vn 0.9348 -0.2257 -0.2741
vn 0.8120 -0.1262 -0.5699
vn 0.8171 -0.1808 -0.5474
vn 0.9241 0.2787 0.2614
vn 0.7714 0.3922 0.5012
vn 0.9833 0.1820 0.0031
vn 0.9333 0.1764 -0.3127
vn 0.7986 0.1756 -0.5756
vn 0.8126 0.5113 0.2797
vn 0.6679 0.5484 0.5032
vn 0.8821 0.4709 0.0095
vn 0.8240 0.4748 -0.3091
vn 0.6970 0.4961 -0.5178
vn 0.8259 0.4886 0.2814
vn 0.7553 0.4248 0.4991
vn 0.8684 0.4958 0.0135
vn 0.8078 0.4889 -0.3292
vn 0.6552 0.5230 -0.5452
vn 0.4266 -0.0611 -0.9024
vn 0.5319 -0.1198 -0.8383
vn 0.5449 -0.1385 -0.8270
vn 0.4010 -0.0517 -0.9146
vn -0.0205 -0.1635 -0.9863
vn -0.0587 -0.2716 -0.9606
vn -0.4134 -0.1864 -0.8913
vn -0.3992 -0.2811 -0.8727
vn -0.5113 -0.1330 -0.8490
vn -0.4715 -0.1770 -0.8639
vn 0.4137 0.0534 -0.9088
vn 0.5487 0.0808 -0.8321
vn 0.0087 0.0775 -0.9970
vn -0.4313 0.0542 -0.9006
vn -0.5313 0.0870 -0.8427
vn 0.3705 0.4080 -0.8344
vn 0.5326 0.3883 -0.7520
vn 0.0102 0.4488 -0.8936
vn -0.3776 0.4050 -0.8327
vn -0.5348 0.3453 -0.7713
vn 0.3245 0.6121 -0.7211
vn 0.3898 0.4222 -0.8184
vn -0.0026 0.6395 -0.7688
vn -0.2917 0.6330 -0.7171
vn -0.4790 0.5606 -0.6754
vn -0.9352 -0.1553 -0.3182
vn -0.8040 -0.1210 -0.5821
vn -0.7969 -0.2018 -0.5694
vn -0.9321 -0.2388 -0.2722
vn -0.9863 -0.1645 0.0113
vn -0.9704 -0.2416 0.0077
vn -0.9606 -0.0163 0.2774
vn -0.9474 -0.0810 0.3097
vn -0.8694 0.1032 0.4831
vn -0.8700 0.0139 0.4928
vn -0.9324 0.1786 -0.3143
vn -0.7975 0.1837 -0.5747
vn -0.9834 0.1808 0.0141
vn -0.9204 0.2835 0.2694
vn -0.7996 0.3759 0.4683
vn -0.8342 0.4628 -0.2999
vn -0.6988 0.4569 -0.5503
vn -0.8834 0.4684 0.0148
vn -0.8224 0.4931 0.2836
vn -0.7040 0.5075 0.4969
vn -0.8040 0.5151 -0.2970
vn -0.5916 0.5537 -0.5860
vn -0.8686 0.4953 0.0126
vn -0.8239 0.4977 0.2712
vn -0.7300 0.4425 0.5210
vn 0.0000 -1.0000 -0.0000
vn 0.0000 1.0000 -0.0000
vn 0.0000 0.0000 1.0000
vn 1.0000 0.0000 -0.0000
vn 0.0000 0.0000 -1.0000
vn -1.0000 0.0000 -0.0000
# 156 vertex normals

vt 1.0000 1.0000 1.0000
vt 1.0000 1.0000 1.0000
vt 1.0000 1.0000 1.0000
vt 1.0000 1.0000 1.0000
vt 1.0000 1.0000 1.0000
vt 1.0000 1.0000 1.0000
vt 1.0000 1.0000 1.0000
vt 1.0000 1.0000 1.0000
vt 1.0000 1.0000 1.0000
vt 1.0000 1.0000 1.0000
vt 1.0000 1.0000 1.0000
vt 1.0000 1.0000 1.0000
vt 1.0000 1.0000 1.0000
vt 1.0000 1.0000 1.0000
vt 1.0000 1.0000 1.0000
vt 1.0000 1.0000 1.0000
vt 1.0000 1.0000 1.0000
vt 1.0000 1.0000 1.0000
vt 1.0000 1.0000 1.0000
vt 1.0000 1.0000 1.0000
vt 1.0000 1.0000 1.0000
vt 1.0000 1.0000 1.0000
vt 1.0000 1.0000 1.0000
vt 1.0000 1.0000 1.0000
vt 1.0000 1.0000 1.0000
# 25 texture coords

o Box001
g Box001
f 1/1/1 2/2/2 3/3/3 
f 3/3/3 4/4/4 1/1/1 
f 5/5/5 6/6/6 2/2/2 
f 2/2/2 1/1/1 5/5/5 
f 7/7/7 8/8/8 6/6/6 
f 6/6/6 5/5/5 7/7/7 
f 9/9/9 10/10/10 8/8/8 
f 8/8/8 7/7/7 9/9/9 
f 11/11/11 1/1/1 4/4/4 
f 4/4/4 12/12/12 11/11/11 
f 13/13/13 5/5/5 1/1/1 
f 1/1/1 11/11/11 13/13/13 
f 14/14/14 7/7/7 5/5/5 
f 5/5/5 13/13/13 14/14/14 
f 15/15/15 9/9/9 7/7/7 
f 7/7/7 14/14/14 15/15/15 
f 16/16/16 11/11/11 12/12/12 
f 12/12/12 17/17/17 16/16/16 
f 18/18/18 13/13/13 11/11/11 
f 11/11/11 16/16/16 18/18/18 
f 19/19/19 14/14/14 13/13/13 
f 13/13/13 18/18/18 19/19/19 
f 20/20/20 15/15/15 14/14/14 
f 14/14/14 19/19/19 20/20/20 
f 21/21/21 16/16/16 17/17/17 
f 17/17/17 22/22/22 21/21/21 
f 23/23/23 18/18/18 16/16/16 
f 16/16/16 21/21/21 23/23/23 
f 24/24/24 19/19/19 18/18/18 
f 18/18/18 23/23/23 24/24/24 
f 25/25/25 20/20/20 19/19/19 
f 19/19/19 24/24/24 25/25/25 
f 26/7/26 27/9/27 28/10/28 
f 28/10/28 29/8/29 26/7/26 
f 30/5/30 26/7/26 29/8/29 
f 29/8/29 31/6/31 30/5/30 
f 32/1/32 30/5/30 31/6/31 
f 31/6/31 33/2/33 32/1/32 
f 34/4/34 32/1/32 33/2/33 
f 33/2/33 35/3/35 34/4/34 
f 36/14/36 37/15/37 27/9/27 
f 27/9/27 26/7/26 36/14/36 
f 38/13/38 36/14/36 26/7/26 
f 26/7/26 30/5/30 38/13/38 
f 39/11/39 38/13/38 30/5/30 
f 30/5/30 32/1/32 39/11/39 
f 40/12/40 39/11/39 32/1/32 
f 32/1/32 34/4/34 40/12/40 
f 41/19/41 42/20/42 37/15/37 
f 37/15/37 36/14/36 41/19/41 
f 43/18/43 41/19/41 36/14/36 
f 36/14/36 38/13/38 43/18/43 
f 44/16/44 43/18/43 38/13/38 
f 38/13/38 39/11/39 44/16/44 
f 45/17/45 44/16/44 39/11/39 
f 39/11/39 40/12/40 45/17/45 
f 46/24/46 47/25/47 42/20/42 
f 42/20/42 41/19/41 46/24/46 
f 48/23/48 46/24/46 41/19/41 
f 41/19/41 43/18/43 48/23/48 
f 49/21/49 48/23/48 43/18/43 
f 43/18/43 44/16/44 49/21/49 
f 50/22/50 49/21/49 44/16/44 
f 44/16/44 45/17/45 50/22/50 
f 51/7/51 52/9/52 3/10/53 
f 3/10/53 2/8/54 51/7/51 
f 53/5/55 51/7/51 2/8/54 
f 2/8/54 6/6/56 53/5/55 
f 54/1/57 53/5/55 6/6/56 
f 6/6/56 8/2/58 54/1/57 
f 55/4/59 54/1/57 8/2/58 
f 8/2/58 10/3/60 55/4/59 
f 56/14/61 57/15/62 52/9/52 
f 52/9/52 51/7/51 56/14/61 
f 58/13/63 56/14/61 51/7/51 
f 51/7/51 53/5/55 58/13/63 
f 59/11/64 58/13/63 53/5/55 
f 53/5/55 54/1/57 59/11/64 
f 60/12/65 59/11/64 54/1/57 
f 54/1/57 55/4/59 60/12/65 
f 61/19/66 62/20/67 57/15/62 
f 57/15/62 56/14/61 61/19/66 
f 63/18/68 61/19/66 56/14/61 
f 56/14/61 58/13/63 63/18/68 
f 64/16/69 63/18/68 58/13/63 
f 58/13/63 59/11/64 64/16/69 
f 65/17/70 64/16/69 59/11/64 
f 59/11/64 60/12/65 65/17/70 
f 29/24/71 28/25/72 62/20/67 
f 62/20/67 61/19/66 29/24/71 
f 31/23/73 29/24/71 61/19/66 
f 61/19/66 63/18/68 31/23/73 
f 33/21/74 31/23/73 63/18/68 
f 63/18/68 64/16/69 33/21/74 
f 35/22/75 33/21/74 64/16/69 
f 64/16/69 65/17/70 35/22/75 
f 66/7/76 55/9/77 10/10/78 
f 10/10/78 9/8/79 66/7/76 
f 67/5/80 66/7/76 9/8/79 
f 9/8/79 15/6/81 67/5/80 
f 68/1/82 67/5/80 15/6/81 
f 15/6/81 20/2/83 68/1/82 
f 69/4/84 68/1/82 20/2/83 
f 20/2/83 25/3/85 69/4/84 
f 70/14/86 60/15/87 55/9/77 
f 55/9/77 66/7/76 70/14/86 
f 71/13/88 70/14/86 66/7/76 
f 66/7/76 67/5/80 71/13/88 
f 72/11/89 71/13/88 67/5/80 
f 67/5/80 68/1/82 72/11/89 
f 73/12/90 72/11/89 68/1/82 
f 68/1/82 69/4/84 73/12/90 
f 74/19/91 65/20/92 60/15/87 
f 60/15/87 70/14/86 74/19/91 
f 75/18/93 74/19/91 70/14/86 
f 70/14/86 71/13/88 75/18/93 
f 76/16/94 75/18/93 71/13/88 
f 71/13/88 72/11/89 76/16/94 
f 77/17/95 76/16/94 72/11/89 
f 72/11/89 73/12/90 77/17/95 
f 34/24/96 35/25/97 65/20/92 
f 65/20/92 74/19/91 34/24/96 
f 40/23/98 34/24/96 74/19/91 
f 74/19/91 75/18/93 40/23/98 
f 45/21/99 40/23/98 75/18/93 
f 75/18/93 76/16/94 45/21/99 
f 50/22/100 45/21/99 76/16/94 
f 76/16/94 77/17/95 50/22/100 
f 78/7/101 69/9/102 25/10/103 
f 25/10/103 24/8/104 78/7/101 
f 79/5/105 78/7/101 24/8/104 
f 24/8/104 23/6/106 79/5/105 
f 80/1/107 79/5/105 23/6/106 
f 23/6/106 21/2/108 80/1/107 
f 81/4/109 80/1/107 21/2/108 
f 21/2/108 22/3/110 81/4/109 
f 82/14/111 73/15/112 69/9/102 
f 69/9/102 78/7/101 82/14/111 
f 83/13/113 82/14/111 78/7/101 
f 78/7/101 79/5/105 83/13/113 
f 84/11/114 83/13/113 79/5/105 
f 79/5/105 80/1/107 84/11/114 
f 85/12/115 84/11/114 80/1/107 
f 80/1/107 81/4/109 85/12/115 
f 86/19/116 77/20/117 73/15/112 
f 73/15/112 82/14/111 86/19/116 
f 87/18/118 86/19/116 82/14/111 
f 82/14/111 83/13/113 87/18/118 
f 88/16/119 87/18/118 83/13/113 
f 83/13/113 84/11/114 88/16/119 
f 89/17/120 88/16/119 84/11/114 
f 84/11/114 85/12/115 89/17/120 
f 49/24/121 50/25/122 77/20/117 
f 77/20/117 86/19/116 49/24/121 
f 48/23/123 49/24/121 86/19/116 
f 86/19/116 87/18/118 48/23/123 
f 46/21/124 48/23/123 87/18/118 
f 87/18/118 88/16/119 46/21/124 
f 47/22/125 46/21/124 88/16/119 
f 88/16/119 89/17/120 47/22/125 
f 90/7/126 81/9/127 22/10/128 
f 22/10/128 17/8/129 90/7/126 
f 91/5/130 90/7/126 17/8/129 
f 17/8/129 12/6/131 91/5/130 
f 92/1/132 91/5/130 12/6/131 
f 12/6/131 4/2/133 92/1/132 
f 52/4/134 92/1/132 4/2/133 
f 4/2/133 3/3/135 52/4/134 
f 93/14/136 85/15/137 81/9/127 
f 81/9/127 90/7/126 93/14/136 
f 94/13/138 93/14/136 90/7/126 
f 90/7/126 91/5/130 94/13/138 
f 95/11/139 94/13/138 91/5/130 
f 91/5/130 92/1/132 95/11/139 
f 57/12/140 95/11/139 92/1/132 
f 92/1/132 52/4/134 57/12/140 
f 96/19/141 89/20/142 85/15/137 
f 85/15/137 93/14/136 96/19/141 
f 97/18/143 96/19/141 93/14/136 
f 93/14/136 94/13/138 97/18/143 
f 98/16/144 97/18/143 94/13/138 
f 94/13/138 95/11/139 98/16/144 
f 62/17/145 98/16/144 95/11/139 
f 95/11/139 57/12/140 62/17/145 
f 42/24/146 47/25/147 89/20/142 
f 89/20/142 96/19/141 42/24/146 
f 37/23/148 42/24/146 96/19/141 
f 96/19/141 97/18/143 37/23/148 
f 27/21/149 37/23/148 97/18/143 
f 97/18/143 98/16/144 27/21/149 
f 28/22/150 27/21/149 98/16/144 
f 98/16/144 62/17/145 28/22/150 
f 99/3/151 100/22/151 101/25/151 
f 101/25/151 102/10/151 99/3/151 
f 103/10/152 104/3/152 105/22/152 
f 105/22/152 106/25/152 103/10/152 
f 99/10/153 102/3/153 104/22/153 
f 104/22/153 103/25/153 99/10/153 
f 102/10/154 101/3/154 105/22/154 
f 105/22/154 104/25/154 102/10/154 
f 101/10/155 100/3/155 106/22/155 
f 106/22/155 105/25/155 101/10/155 
f 100/10/156 99/3/156 103/22/156 
f 103/22/156 106/25/156 100/10/156 
f 107/3/151 108/22/151 109/25/151 
f 109/25/151 110/10/151 107/3/151 
f 111/10/152 112/3/152 113/22/152 
f 113/22/152 114/25/152 111/10/152 
f 107/10/153 110/3/153 112/22/153 
f 112/22/153 111/25/153 107/10/153 
f 110/10/154 109/3/154 113/22/154 
f 113/22/154 112/25/154 110/10/154 
f 109/10/155 108/3/155 114/22/155 
f 114/22/155 113/25/155 109/10/155 
f 108/10/156 107/3/156 111/22/156 
f 111/22/156 114/25/156 108/10/156 
f 115/3/151 116/22/151 117/25/151 
f 117/25/151 118/10/151 115/3/151 
f 119/10/152 120/3/152 121/22/152 
f 121/22/152 122/25/152 119/10/152 
f 115/10/153 118/3/153 120/22/153 
f 120/22/153 119/25/153 115/10/153 
f 118/10/154 117/3/154 121/22/154 
f 121/22/154 120/25/154 118/10/154 
f 117/10/155 116/3/155 122/22/155 
f 122/22/155 121/25/155 117/10/155 
f 116/10/156 115/3/156 119/22/156 
f 119/22/156 122/25/156 116/10/156 
# 228 faces

#
# object Box003
#

v  0.8000 20.1892 15.5000
v  0.8000 20.1892 12.5000
v  3.8000 20.1892 12.5000
v  3.8000 20.1892 15.5000
v  0.8000 23.1892 15.5000
v  3.8000 23.1892 15.5000
v  3.8000 23.1892 12.5000
v  0.8000 23.1892 12.5000
v  -3.8000 20.1892 15.5000
v  -3.8000 20.1892 12.5000
v  -0.8000 20.1892 12.5000
v  -0.8000 20.1892 15.5000
v  -3.8000 23.1892 15.5000
v  -0.8000 23.1892 15.5000
v  -0.8000 23.1892 12.5000
v  -3.8000 23.1892 12.5000
v  -1.1341 13.6461 20.7461
v  -1.1341 12.5640 19.2007
v  0.7525 12.5640 19.2007
v  0.7525 13.6461 20.7461
v  -1.1341 15.1915 19.6640
v  0.7525 15.1915 19.6640
v  0.7525 14.1094 18.1186
v  -1.1341 14.1094 18.1186
# 24 vertices

vn 0.0000 -1.0000 -0.0000
vn 0.0000 1.0000 -0.0000
vn 0.0000 0.0000 1.0000
vn 1.0000 0.0000 -0.0000
vn 0.0000 0.0000 -1.0000
vn -1.0000 0.0000 -0.0000
vn 0.0000 -0.8192 0.5736
vn 0.0000 0.8192 -0.5736
vn 0.0000 0.5736 0.8192
vn 0.0000 -0.5736 -0.8192
# 10 vertex normals

vt 1.0000 0.5000 0.6000
vt 1.0000 0.5000 0.6000
vt 1.0000 0.5000 0.6000
vt 1.0000 0.5000 0.6000
# 4 texture coords

o Box003
g Box003
f 123/26/157 124/27/157 125/28/157 
f 125/28/157 126/29/157 123/26/157 
f 127/29/158 128/26/158 129/27/158 
f 129/27/158 130/28/158 127/29/158 
f 123/29/159 126/26/159 128/27/159 
f 128/27/159 127/28/159 123/29/159 
f 126/29/160 125/26/160 129/27/160 
f 129/27/160 128/28/160 126/29/160 
f 125/29/161 124/26/161 130/27/161 
f 130/27/161 129/28/161 125/29/161 
f 124/29/162 123/26/162 127/27/162 
f 127/27/162 130/28/162 124/29/162 
f 131/26/157 132/27/157 133/28/157 
f 133/28/157 134/29/157 131/26/157 
f 135/29/158 136/26/158 137/27/158 
f 137/27/158 138/28/158 135/29/158 
f 131/29/159 134/26/159 136/27/159 
f 136/27/159 135/28/159 131/29/159 
f 134/29/160 133/26/160 137/27/160 
f 137/27/160 136/28/160 134/29/160 
f 133/29/161 132/26/161 138/27/161 
f 138/27/161 137/28/161 133/29/161 
f 132/29/162 131/26/162 135/27/162 
f 135/27/162 138/28/162 132/29/162 
f 139/26/163 140/27/163 141/28/163 
f 141/28/163 142/29/163 139/26/163 
f 143/29/164 144/26/164 145/27/164 
f 145/27/164 146/28/164 143/29/164 
f 139/29/165 142/26/165 144/27/165 
f 144/27/165 143/28/165 139/29/165 
f 142/29/160 141/26/160 145/27/160 
f 145/27/160 144/28/160 142/29/160 
f 141/29/166 140/26/166 146/27/166 
f 146/27/166 145/28/166 141/29/166 
f 140/29/162 139/26/162 143/27/162 
f 143/27/162 146/28/162 140/29/162 
# 36 faces

#
# object Box009
#

v  3.2374 27.1892 -2.1337
v  3.2374 27.1892 -5.8663
v  6.7626 27.1892 -5.8663
v  6.7626 27.1892 -2.1337
v  3.2374 36.9353 -2.1337
v  6.7626 36.9353 -2.1337
v  6.7626 36.9353 -5.8663
v  3.2374 36.9353 -5.8663
v  -6.7626 27.1892 -2.1337
v  -6.7626 27.1892 -5.8663
v  -3.2374 27.1892 -5.8663
v  -3.2374 27.1892 -2.1337
v  -6.7626 36.9353 -2.1337
v  -3.2374 36.9353 -2.1337
v  -3.2374 36.9353 -5.8663
v  -6.7626 36.9353 -5.8663
# 16 vertices

vn 0.0000 -1.0000 -0.0000
vn 0.0000 1.0000 -0.0000
vn 0.0000 0.0000 1.0000
vn 1.0000 0.0000 -0.0000
vn 0.0000 0.0000 -1.0000
vn -1.0000 0.0000 -0.0000
# 6 vertex normals

vt 0.0000 0.0000 0.0000
vt 0.0000 0.0000 0.0000
vt 0.0000 0.0000 0.0000
vt 0.0000 0.0000 0.0000
# 4 texture coords

o Box009
g Box009
f 147/30/167 148/31/167 149/32/167 
f 149/32/167 150/33/167 147/30/167 
f 151/33/168 152/30/168 153/31/168 
f 153/31/168 154/32/168 151/33/168 
f 147/33/169 150/30/169 152/31/169 
f 152/31/169 151/32/169 147/33/169 
f 150/33/170 149/30/170 153/31/170 
f 153/31/170 152/32/170 150/33/170 
f 149/33/171 148/30/171 154/31/171 
f 154/31/171 153/32/171 149/33/171 
f 148/33/172 147/30/172 151/31/172 
f 151/31/172 154/32/172 148/33/172 
f 155/30/167 156/31/167 157/32/167 
f 157/32/167 158/33/167 155/30/167 
f 159/33/168 160/30/168 161/31/168 
f 161/31/168 162/32/168 159/33/168 
f 155/33/169 158/30/169 160/31/169 
f 160/31/169 159/32/169 155/33/169 
f 158/33/170 157/30/170 161/31/170 
f 161/31/170 160/32/170 158/33/170 
f 157/33/171 156/30/171 162/31/171 
f 162/31/171 161/32/171 157/33/171 
f 156/33/172 155/30/172 159/31/172 
f 159/31/172 162/32/172 156/33/172 
# 24 faces

